<svg width="206" height="59" xmlns="http://www.w3.org/2000/svg" xmlns:xlink="http://www.w3.org/1999/xlink"><defs><path d="M6.634 0A6.632 6.632 0 0 0 0 6.629V52.37C0 56.032 2.97 59 6.634 59h191.859a6.632 6.632 0 0 0 6.636-6.629V6.63a6.632 6.632 0 0 0-6.636-6.629H6.633z" id="a"/><mask id="b" x="0" y="0" width="205.129" height="59" fill="#fff"><use xlink:href="#a"/></mask><path id="c" d="M.814 7.696H7.71V.387H.814z"/><path id="e" d="M0 10.414h110.996V0H0z"/></defs><g fill="none" fill-rule="evenodd"><use stroke="#3F3F3F" mask="url(#b)" stroke-width="2" fill="#000" xlink:href="#a"/><g transform="translate(66.696 8.978)"><path d="M1.269 9.258c.32.057.787.073 1.282.073 2.713 0 4.186-1.502 4.186-4.132.014-2.297-1.298-3.755-3.98-3.755-.657 0-1.153.058-1.488.13v7.684zM0 .648a18.36 18.36 0 0 1 2.698-.2c1.822 0 3.12.417 3.98 1.213.874.794 1.385 1.92 1.385 3.495 0 1.589-.495 2.888-1.414 3.783-.918.911-2.435 1.402-4.345 1.402-.904 0-1.662-.043-2.304-.115V.649z" fill="#FFF"/><g transform="translate(8.978 2.718)"><mask id="d" fill="#fff"><use xlink:href="#c"/></mask><path d="M2.112 4.056c0 1.53.889 2.687 2.143 2.687 1.225 0 2.143-1.142 2.143-2.715 0-1.186-.597-2.688-2.113-2.688-1.518 0-2.173 1.387-2.173 2.716m5.598-.073c0 2.585-1.807 3.713-3.514 3.713-1.91 0-3.382-1.387-3.382-3.598 0-2.34 1.545-3.71 3.499-3.71 2.026 0 3.397 1.457 3.397 3.595" fill="#FFF" mask="url(#d)"/></g><path d="M19.293 3.264l.934 3.553c.204.78.393 1.502.524 2.224h.044c.16-.708.394-1.46.627-2.21l1.152-3.567h1.079l1.094 3.495c.263.838.467 1.574.627 2.282h.043c.117-.708.306-1.444.54-2.268l1.005-3.509h1.27l-2.276 6.99H24.79l-1.078-3.336a22.88 22.88 0 0 1-.628-2.296h-.03a20.59 20.59 0 0 1-.64 2.31l-1.138 3.322H20.11l-2.13-6.99h1.313zm10.798 1.891c0-.72-.015-1.313-.059-1.891h1.138l.073 1.155h.028c.35-.664 1.167-1.314 2.333-1.314.978 0 2.494.578 2.494 2.975v4.175h-1.283v-4.03c0-1.127-.423-2.065-1.633-2.065-.846 0-1.502.591-1.721 1.298a1.831 1.831 0 0 0-.087.593v4.204H30.09v-5.1z" fill="#FFF"/><mask id="f" fill="#fff"><use xlink:href="#e"/></mask><path fill="#FFF" mask="url(#f)" d="M38.762 10.255h1.282V0h-1.282zm4.517-3.481c0 1.53.889 2.687 2.144 2.687 1.224 0 2.143-1.142 2.143-2.715 0-1.186-.599-2.688-2.115-2.688-1.516 0-2.172 1.387-2.172 2.716m5.598-.073c0 2.585-1.807 3.713-3.513 3.713-1.91 0-3.383-1.387-3.383-3.598 0-2.34 1.545-3.71 3.5-3.71 2.026 0 3.396 1.457 3.396 3.595m5.913-.014c-1.398-.03-2.988.217-2.988 1.574 0 .824.554 1.213 1.21 1.213.918 0 1.502-.577 1.706-1.17.045-.13.073-.274.073-.405V6.687zm.19 3.567l-.102-.88h-.044c-.392.548-1.151 1.04-2.157 1.04-1.43 0-2.159-.997-2.159-2.008 0-1.69 1.518-2.614 4.245-2.6v-.145c0-.577-.16-1.618-1.605-1.618-.655 0-1.342.204-1.837.52l-.292-.837c.582-.376 1.43-.621 2.319-.621 2.159 0 2.683 1.458 2.683 2.86V8.58c0 .606.028 1.198.117 1.675h-1.169zm8.22-4.145c0-.16-.015-.376-.059-.534-.19-.81-.888-1.474-1.852-1.474-1.326 0-2.115 1.156-2.115 2.702 0 1.416.7 2.585 2.086 2.585.86 0 1.647-.564 1.881-1.517.044-.173.058-.346.058-.549V6.11zm1.283-6.11v8.45c0 .621.014 1.328.058 1.805h-1.153l-.057-1.213h-.03c-.394.78-1.252 1.372-2.405 1.372-1.706 0-3.018-1.43-3.018-3.553-.015-2.326 1.444-3.755 3.163-3.755 1.08 0 1.81.505 2.13 1.068h.028V0h1.284zm6.873 6.775c0 1.53.889 2.687 2.144 2.687 1.224 0 2.144-1.142 2.144-2.715 0-1.186-.6-2.688-2.116-2.688s-2.172 1.387-2.172 2.716m5.598-.073c0 2.585-1.807 3.713-3.513 3.713-1.91 0-3.383-1.387-3.383-3.598 0-2.34 1.545-3.71 3.5-3.71 2.027 0 3.396 1.457 3.396 3.595m2.198-1.546c0-.72-.016-1.313-.06-1.891h1.138l.072 1.155h.03c.35-.664 1.167-1.314 2.333-1.314.977 0 2.494.578 2.494 2.975v4.175h-1.284v-4.03c0-1.127-.422-2.065-1.632-2.065-.847 0-1.502.591-1.722 1.298a1.797 1.797 0 0 0-.087.593v4.204h-1.282v-5.1zm13.596-3.899v2.008h1.837v.967h-1.837V8c0 .868.248 1.358.962 1.358.336 0 .584-.044.744-.086l.058.953c-.248.1-.642.173-1.138.173-.598 0-1.079-.189-1.385-.535-.365-.375-.495-.995-.495-1.82V4.23H90.4v-.967h1.093V1.589l1.254-.333zM96.61 0h1.282v4.36h.029a2.37 2.37 0 0 1 .92-.894c.378-.217.83-.36 1.311-.36.948 0 2.465.576 2.465 2.989v4.16h-1.283V6.239c0-1.126-.422-2.08-1.633-2.08-.831 0-1.488.578-1.721 1.27-.072.175-.088.363-.088.608v4.218H96.61V0zm13.145 6.08c.016-.81-.335-2.065-1.779-2.065-1.297 0-1.866 1.184-1.967 2.065h3.746zm-3.762.91c.03 1.72 1.138 2.427 2.422 2.427.918 0 1.472-.159 1.953-.361l.218.909c-.451.204-1.225.433-2.347.433-2.173 0-3.47-1.414-3.47-3.524 0-2.108 1.254-3.768 3.31-3.768 2.303 0 2.916 2.007 2.916 3.292 0 .259-.03.462-.043.593h-4.959z"/></g><path d="M43.838 28.961c0-5.06 4.115-7.144 4.115-7.144s-2.104-3.77-7.45-3.77c-3.106 0-5.492 1.751-6.778 1.751-1.496 0-3.731-1.648-6.613-1.648-4.432 0-9.155 3.935-9.155 11.433 0 7.622 5.581 17.103 10 17.103 1.54 0 3.91-1.54 6.294-1.54 2.343 0 4.068 1.485 6.292 1.485 4.838 0 8.42-9.997 8.42-9.997s-5.125-1.966-5.125-7.673m-4.767-13.956c2.484-2.956 1.966-6.027 1.966-6.027s-3.473.016-5.973 3.282c-2.222 2.903-1.656 5.386-1.656 5.386s3.012.517 5.663-2.64m33.471 21.996l-1.66-5.125c-.175-.524-.503-1.757-.988-3.698h-.06c-.193.835-.505 2.068-.932 3.698l-1.63 5.125h5.27zm5.738 8.184h-3.35l-1.835-5.765h-6.377l-1.748 5.765h-3.262l6.32-19.629h3.903l6.349 19.63zm13.046-7.136c0-1.377-.31-2.513-.932-3.406-.68-.932-1.593-1.4-2.737-1.4-.776 0-1.481.261-2.111.773-.631.516-1.044 1.19-1.238 2.025-.097.389-.146.708-.146.958v2.36c0 1.03.317 1.899.948 2.608.63.71 1.45 1.064 2.46 1.064 1.184 0 2.106-.457 2.765-1.37.66-.911.991-2.116.991-3.611m3.204-.116c0 2.408-.65 4.311-1.952 5.708-1.164 1.243-2.611 1.864-4.339 1.864-1.865 0-3.204-.67-4.02-2.009h-.058v7.456h-3.144V35.692c0-1.513-.041-3.067-.117-4.66h2.765l.176 2.244h.06c1.047-1.69 2.639-2.534 4.774-2.534 1.67 0 3.064.66 4.18 1.98 1.118 1.32 1.675 3.059 1.675 5.213m13.076.115c0-1.377-.312-2.513-.934-3.406-.68-.932-1.59-1.4-2.735-1.4-.778 0-1.482.261-2.113.773-.63.516-1.043 1.19-1.236 2.025-.095.389-.147.708-.147.958v2.36c0 1.03.317 1.899.944 2.608.633.708 1.452 1.064 2.464 1.064 1.184 0 2.106-.457 2.766-1.37.66-.911.991-2.116.991-3.611m3.204-.116c0 2.408-.65 4.311-1.953 5.708-1.164 1.243-2.61 1.864-4.338 1.864-1.865 0-3.204-.67-4.019-2.009h-.059v7.456h-3.143V35.692c0-1.513-.04-3.067-.117-4.66h2.765l.176 2.244h.06c1.046-1.69 2.637-2.534 4.776-2.534 1.667 0 3.061.66 4.18 1.98 1.113 1.32 1.672 3.059 1.672 5.213m18.201 1.747c0 1.67-.58 3.028-1.743 4.078-1.279 1.145-3.059 1.717-5.347 1.717-2.112 0-3.805-.407-5.087-1.222l.729-2.622a8.617 8.617 0 0 0 4.545 1.254c1.184 0 2.106-.268 2.77-.803.659-.533.987-1.25.987-2.144 0-.797-.272-1.467-.816-2.011-.54-.545-1.445-1.05-2.707-1.519-3.438-1.281-5.154-3.159-5.154-5.628 0-1.613.602-2.937 1.806-3.966 1.2-1.03 2.803-1.547 4.806-1.547 1.787 0 3.27.312 4.455.933l-.787 2.564c-1.105-.602-2.357-.903-3.756-.903-1.106 0-1.97.273-2.59.816-.525.484-.786 1.076-.786 1.777 0 .776.299 1.418.9 1.922.525.467 1.475.97 2.857 1.514 1.689.68 2.929 1.475 3.727 2.387.795.908 1.191 2.046 1.191 3.403m10.398-6.289h-3.466v6.872c0 1.748.61 2.62 1.834 2.62.562 0 1.029-.048 1.397-.145l.087 2.387c-.62.232-1.435.35-2.446.35-1.241 0-2.212-.38-2.913-1.137-.697-.758-1.049-2.03-1.049-3.816V33.39h-2.065v-2.36h2.065v-2.592l3.09-.932v3.524h3.466v2.363zm12.376 4.702c0-1.306-.278-2.425-.844-3.36-.659-1.128-1.602-1.692-2.823-1.692-1.263 0-2.224.565-2.883 1.693-.566.936-.844 2.073-.844 3.418 0 1.306.278 2.425.844 3.357.68 1.13 1.63 1.694 2.855 1.694 1.2 0 2.143-.576 2.823-1.724.58-.95.872-2.082.872-3.386m3.263-.101c0 2.175-.622 3.962-1.865 5.358-1.301 1.438-3.03 2.155-5.185 2.155-2.077 0-3.731-.689-4.964-2.066-1.233-1.379-1.85-3.117-1.85-5.213 0-2.194.634-3.99 1.908-5.387 1.27-1.399 2.983-2.098 5.14-2.098 2.076 0 3.747.689 5.008 2.069 1.207 1.338 1.808 3.064 1.808 5.182m10.222-4.196a5.443 5.443 0 0 0-.992-.087c-1.105 0-1.96.418-2.562 1.255-.525.737-.787 1.668-.787 2.794v7.427h-3.143l.03-9.697c0-1.631-.04-3.117-.119-4.456h2.739l.115 2.708h.087c.332-.93.856-1.68 1.573-2.242.7-.505 1.457-.758 2.273-.758.29 0 .552.02.786.058v2.998zm11.065 2.827c.02-.933-.184-1.738-.61-2.418-.544-.875-1.382-1.311-2.507-1.311-1.028 0-1.864.426-2.503 1.281-.523.68-.834 1.496-.93 2.446h6.55v.002zm2.999.815c0 .563-.037 1.04-.115 1.427h-9.434c.037 1.398.492 2.467 1.368 3.205.796.659 1.823.99 3.086.99 1.397 0 2.67-.223 3.817-.67l.493 2.183c-1.339.584-2.92.874-4.744.874-2.196 0-3.919-.645-5.172-1.937-1.252-1.29-1.878-3.023-1.878-5.197 0-2.134.583-3.912 1.75-5.33 1.22-1.513 2.872-2.27 4.948-2.27 2.04 0 3.584.757 4.633 2.27.83 1.203 1.248 2.69 1.248 4.455z" fill="#FFF"/></g></svg>