<svg width="206" height="59" xmlns="http://www.w3.org/2000/svg" xmlns:xlink="http://www.w3.org/1999/xlink"><defs><path d="M6.634 0A6.632 6.632 0 0 0 0 6.629V52.37C0 56.032 2.97 59 6.634 59h191.859a6.632 6.632 0 0 0 6.636-6.629V6.63a6.632 6.632 0 0 0-6.636-6.629H6.633z" id="a"/><mask id="b" x="0" y="0" width="205.129" height="59" fill="#fff"><use xlink:href="#a"/></mask><path id="c" d="M6.124 10.26H0V.209h6.124z"/><path id="e" d="M6.232 7.622V.473h-5.7v7.15z"/></defs><g fill="none" fill-rule="evenodd"><use stroke="#3F3F3F" mask="url(#b)" stroke-width="2" fill="#000" xlink:href="#a"/><g transform="translate(65.413 10.053)"><mask id="d" fill="#fff"><use xlink:href="#c"/></mask><path d="M.277.944C.947.511 1.807.208 2.872.208c1.707 0 2.887.88 2.887 2.383 0 1.2-.875 2.109-2.027 2.37v.027c1.384.145 2.392 1.04 2.392 2.441 0 2.023-1.765 2.832-3.559 2.832-.889 0-1.823-.188-2.565-.636l.335-.982c.524.302 1.4.592 2.202.592 1.457 0 2.258-.78 2.258-1.85 0-1.458-1.413-1.876-2.667-1.876h-.583v-.954h.583c1.298 0 2.303-.794 2.303-1.79 0-.983-.699-1.53-1.763-1.53-.744 0-1.516.302-2.042.634L.276.944z" fill="#FFF" mask="url(#d)"/></g><path d="M77.495 16.587c-1.4-.029-2.988.217-2.988 1.574 0 .824.554 1.214 1.21 1.214.917 0 1.501-.578 1.705-1.17.045-.131.073-.275.073-.405v-1.213zm.189 3.567l-.102-.88h-.043c-.393.548-1.152 1.04-2.158 1.04-1.43 0-2.158-.997-2.158-2.008 0-1.69 1.517-2.614 4.244-2.6v-.145c0-.577-.16-1.618-1.605-1.618-.656 0-1.341.204-1.838.52l-.29-.837c.582-.376 1.428-.62 2.317-.62 2.159 0 2.683 1.457 2.683 2.86v2.613c0 .606.03 1.198.117 1.675h-1.167zm4.896-4.059h.961c.947 0 1.924-.274 1.924-1.096 0-.694-.613-1.027-1.896-1.027-.422 0-.685.029-.99.06v2.063zm-.016 3.222c.364.044.627.058 1.035.058.86 0 2.144-.203 2.144-1.215 0-1.01-1.02-1.227-2.245-1.227h-.934v2.384zm-1.21-6.067c.497-.086 1.414-.159 2.245-.159 1.181 0 3.135.189 3.135 1.749 0 .865-.67 1.4-1.473 1.573v.03c1.035.145 1.793.722 1.793 1.733 0 1.834-2.332 2.065-3.717 2.065-.787 0-1.604-.057-1.983-.086V13.25zm11.616 3.337c-1.4-.029-2.988.217-2.988 1.574 0 .824.554 1.214 1.21 1.214.918 0 1.501-.578 1.705-1.17.045-.131.073-.275.073-.405v-1.213zm.189 3.567l-.101-.88h-.044c-.392.548-1.152 1.04-2.157 1.04-1.43 0-2.159-.997-2.159-2.008 0-1.69 1.517-2.614 4.244-2.6v-.145c0-.577-.16-1.618-1.604-1.618-.657 0-1.342.204-1.838.52l-.291-.837c.582-.376 1.428-.62 2.317-.62 2.159 0 2.683 1.457 2.683 2.86v2.613c0 .606.03 1.198.117 1.675H93.16zm4.939-6.99v2.816h3.353v-2.816h1.27v6.99h-1.27V16.99h-3.353v3.165H96.83v-6.99zm12.023 0v1.011h-2.2v5.98h-1.269v-5.98h-2.202v-1.01zm5.319 3.423c-1.4-.029-2.989.217-2.989 1.574 0 .824.554 1.214 1.21 1.214.918 0 1.502-.578 1.706-1.17.045-.131.073-.275.073-.405v-1.213zm.188 3.567l-.101-.88h-.044c-.392.548-1.151 1.04-2.157 1.04-1.43 0-2.159-.997-2.159-2.008 0-1.69 1.518-2.614 4.245-2.6v-.145c0-.577-.16-1.618-1.605-1.618-.655 0-1.342.204-1.837.52l-.292-.837c.582-.376 1.43-.62 2.319-.62 2.158 0 2.683 1.457 2.683 2.86v2.613c0 .606.028 1.198.117 1.675h-1.169zm4.297-6.99l2.333 3.048h.262v-3.048h1.226v3.048h.248l2.331-3.048h1.474l-2.784 3.179c1.063.114 1.69.736 2.112 1.848.249.677.482 1.415.773 1.964h-1.282c-.234-.42-.438-.997-.641-1.604-.438-1.14-1.095-1.488-2.014-1.488h-.217v3.092h-1.226v-3.092h-.232c-.993 0-1.59.36-2.027 1.502-.233.608-.423 1.156-.672 1.59h-1.239c.293-.564.526-1.3.774-1.95.437-1.126 1.064-1.748 2.127-1.862l-2.798-3.179h1.472zm10.887 0v2.946a42.16 42.16 0 0 1-.074 2.802l.045.015a34.21 34.21 0 0 1 1.136-2.153l2.202-3.61h1.502v6.99H134.4v-2.96c0-1.141.029-1.734.087-2.86h-.044a39.953 39.953 0 0 1-1.166 2.166c-.672 1.083-1.444 2.427-2.202 3.655h-1.472v-6.99h1.21zm12.198 0v1.011h-2.2v5.98h-1.269v-5.98h-2.202v-1.01zm2.883 0v2.946a42.16 42.16 0 0 1-.074 2.802l.045.015A34.21 34.21 0 0 1 147 16.774l2.202-3.61h1.502v6.99h-1.225v-2.96c0-1.141.03-1.734.087-2.86h-.043a39.953 39.953 0 0 1-1.166 2.166c-.672 1.083-1.444 2.427-2.202 3.655h-1.473v-6.99h1.211z" fill="#FFF"/><g transform="translate(156.478 12.618)"><mask id="f" fill="#fff"><use xlink:href="#e"/></mask><path d="M1.756 3.477h.963c.947 0 1.924-.274 1.924-1.097 0-.693-.613-1.026-1.896-1.026-.423 0-.684.029-.991.06v2.063zm-.014 3.222c.364.044.627.058 1.035.058.86 0 2.143-.203 2.143-1.215 0-1.01-1.02-1.227-2.244-1.227h-.934v2.384zM.532.632C1.026.546 1.945.473 2.776.473c1.181 0 3.135.189 3.135 1.748 0 .866-.671 1.401-1.473 1.574v.03c1.035.145 1.793.722 1.793 1.732 0 1.835-2.333 2.065-3.717 2.065A26.98 26.98 0 0 1 .53 7.536V.632z" fill="#FFF" mask="url(#f)"/></g><path d="M43.838 28.961c0-5.06 4.115-7.144 4.115-7.144s-2.104-3.77-7.45-3.77c-3.106 0-5.492 1.751-6.778 1.751-1.496 0-3.731-1.648-6.613-1.648-4.432 0-9.155 3.935-9.155 11.433 0 7.622 5.581 17.103 10 17.103 1.54 0 3.91-1.54 6.294-1.54 2.343 0 4.068 1.485 6.292 1.485 4.838 0 8.42-9.997 8.42-9.997s-5.125-1.966-5.125-7.673m-4.767-13.956c2.484-2.956 1.966-6.027 1.966-6.027s-3.473.016-5.973 3.282c-2.222 2.903-1.656 5.386-1.656 5.386s3.012.517 5.663-2.64m33.471 21.996l-1.66-5.125c-.175-.524-.503-1.757-.988-3.698h-.06c-.193.835-.505 2.068-.932 3.698l-1.63 5.125h5.27zm5.738 8.184h-3.35l-1.835-5.765h-6.377l-1.748 5.765h-3.262l6.32-19.629h3.903l6.349 19.63zm13.046-7.136c0-1.377-.31-2.513-.932-3.406-.68-.932-1.593-1.4-2.737-1.4-.776 0-1.481.261-2.111.773-.631.516-1.044 1.19-1.238 2.025-.097.389-.146.708-.146.958v2.36c0 1.03.317 1.899.948 2.608.63.71 1.45 1.064 2.46 1.064 1.184 0 2.106-.457 2.765-1.37.66-.911.991-2.116.991-3.611m3.204-.116c0 2.408-.65 4.311-1.952 5.708-1.164 1.243-2.611 1.864-4.339 1.864-1.865 0-3.204-.67-4.02-2.009h-.058v7.456h-3.144V35.692c0-1.513-.041-3.067-.117-4.66h2.765l.176 2.244h.06c1.047-1.69 2.639-2.534 4.774-2.534 1.67 0 3.064.66 4.18 1.98 1.118 1.32 1.675 3.059 1.675 5.213m13.076.115c0-1.377-.312-2.513-.934-3.406-.68-.932-1.59-1.4-2.735-1.4-.778 0-1.482.261-2.113.773-.63.516-1.043 1.19-1.236 2.025-.095.389-.147.708-.147.958v2.36c0 1.03.317 1.899.944 2.608.633.708 1.452 1.064 2.464 1.064 1.184 0 2.106-.457 2.766-1.37.66-.911.991-2.116.991-3.611m3.204-.116c0 2.408-.65 4.311-1.953 5.708-1.164 1.243-2.61 1.864-4.338 1.864-1.865 0-3.204-.67-4.019-2.009h-.059v7.456h-3.143V35.692c0-1.513-.04-3.067-.117-4.66h2.765l.176 2.244h.06c1.046-1.69 2.637-2.534 4.776-2.534 1.667 0 3.061.66 4.18 1.98 1.113 1.32 1.672 3.059 1.672 5.213m18.201 1.747c0 1.67-.58 3.028-1.743 4.078-1.279 1.145-3.059 1.717-5.347 1.717-2.112 0-3.805-.407-5.087-1.222l.729-2.622a8.617 8.617 0 0 0 4.545 1.254c1.184 0 2.106-.268 2.77-.803.659-.533.987-1.25.987-2.144 0-.797-.272-1.467-.816-2.011-.54-.545-1.445-1.05-2.707-1.519-3.438-1.281-5.154-3.159-5.154-5.628 0-1.613.602-2.937 1.806-3.966 1.2-1.03 2.803-1.547 4.806-1.547 1.787 0 3.27.312 4.455.933l-.787 2.564c-1.105-.602-2.357-.903-3.756-.903-1.106 0-1.97.273-2.59.816-.525.484-.786 1.076-.786 1.777 0 .776.299 1.418.9 1.922.525.467 1.475.97 2.857 1.514 1.689.68 2.929 1.475 3.727 2.387.795.908 1.191 2.046 1.191 3.403m10.398-6.289h-3.466v6.872c0 1.748.61 2.62 1.834 2.62.562 0 1.029-.048 1.397-.145l.087 2.387c-.62.232-1.435.35-2.446.35-1.241 0-2.212-.38-2.913-1.137-.697-.758-1.049-2.03-1.049-3.816V33.39h-2.065v-2.36h2.065v-2.592l3.09-.932v3.524h3.466v2.363zm12.376 4.702c0-1.306-.278-2.425-.844-3.36-.659-1.128-1.602-1.692-2.823-1.692-1.263 0-2.224.565-2.883 1.693-.566.936-.844 2.073-.844 3.418 0 1.306.278 2.425.844 3.357.68 1.13 1.63 1.694 2.855 1.694 1.2 0 2.143-.576 2.823-1.724.58-.95.872-2.082.872-3.386m3.263-.101c0 2.175-.622 3.962-1.865 5.358-1.301 1.438-3.03 2.155-5.185 2.155-2.077 0-3.731-.689-4.964-2.066-1.233-1.379-1.85-3.117-1.85-5.213 0-2.194.634-3.99 1.908-5.387 1.27-1.399 2.983-2.098 5.14-2.098 2.076 0 3.747.689 5.008 2.069 1.207 1.338 1.808 3.064 1.808 5.182m10.222-4.196a5.443 5.443 0 0 0-.992-.087c-1.105 0-1.96.418-2.562 1.255-.525.737-.787 1.668-.787 2.794v7.427h-3.143l.03-9.697c0-1.631-.04-3.117-.119-4.456h2.739l.115 2.708h.087c.332-.93.856-1.68 1.573-2.242.7-.505 1.457-.758 2.273-.758.29 0 .552.02.786.058v2.998zm11.065 2.827c.02-.933-.184-1.738-.61-2.418-.544-.875-1.382-1.311-2.507-1.311-1.028 0-1.864.426-2.503 1.281-.523.68-.834 1.496-.93 2.446h6.55v.002zm2.999.815c0 .563-.037 1.04-.115 1.427h-9.434c.037 1.398.492 2.467 1.368 3.205.796.659 1.823.99 3.086.99 1.397 0 2.67-.223 3.817-.67l.493 2.183c-1.339.584-2.92.874-4.744.874-2.196 0-3.919-.645-5.172-1.937-1.252-1.29-1.878-3.023-1.878-5.197 0-2.134.583-3.912 1.75-5.33 1.22-1.513 2.872-2.27 4.948-2.27 2.04 0 3.584.757 4.633 2.27.83 1.203 1.248 2.69 1.248 4.455z" fill="#FFF"/></g></svg>