<svg width="206" height="59" xmlns="http://www.w3.org/2000/svg" xmlns:xlink="http://www.w3.org/1999/xlink"><defs><path d="M6.634 0A6.632 6.632 0 0 0 0 6.629V52.37C0 56.032 2.97 59 6.634 59h191.859a6.632 6.632 0 0 0 6.636-6.629V6.63a6.632 6.632 0 0 0-6.636-6.629H6.633z" id="a"/><mask id="b" x="0" y="0" width="205.129" height="59" fill="#fff"><use xlink:href="#a"/></mask><path id="c" d="M0 .947v15.13h13.406V.947H0z"/><path id="e" d="M43.698 5.546V0H0v11.09h43.698V5.546z"/></defs><g fill="none" fill-rule="evenodd"><use stroke="#3F3F3F" mask="url(#b)" stroke-width="2" fill="#000" xlink:href="#a"/><path d="M43.838 28.961c0-5.06 4.115-7.144 4.115-7.144s-2.104-3.77-7.45-3.77c-3.106 0-5.492 1.751-6.778 1.751-1.496 0-3.731-1.648-6.613-1.648-4.432 0-9.155 3.935-9.155 11.433 0 7.622 5.581 17.103 10 17.103 1.54 0 3.91-1.54 6.294-1.54 2.343 0 4.068 1.485 6.292 1.485 4.838 0 8.42-9.997 8.42-9.997s-5.125-1.966-5.125-7.673m-4.767-13.956c2.484-2.956 1.966-6.027 1.966-6.027s-3.473.016-5.973 3.282c-2.222 2.903-1.656 5.386-1.656 5.386s3.012.517 5.663-2.64" fill="#FFF"/><g transform="translate(60.283 11.404)"><mask id="d" fill="#fff"><use xlink:href="#c"/></mask><path d="M8.56 9.701l-1.2-3.726c-.294-.92-.543-1.953-.77-2.828h-.045c-.227.875-.454 1.931-.726 2.828L4.642 9.701H8.56zm-4.37 2.088l-1.315 4.288H0L4.892.947h3.555l4.959 15.13h-2.99l-1.38-4.288H4.19z" fill="#FFF" mask="url(#d)"/></g><path d="M78.056 22.902c0 .269.023.515.09.764a2.516 2.516 0 0 0 2.447 1.93c1.765 0 2.807-1.46 2.807-3.615 0-1.93-.95-3.5-2.74-3.5-1.154 0-2.219.83-2.49 2.041a2.485 2.485 0 0 0-.114.697v1.683zm-2.786-2.716c0-1.436-.044-2.603-.09-3.637h2.447l.136 1.683h.044c.815-1.234 2.105-1.93 3.782-1.93 2.535 0 4.641 2.155 4.641 5.567 0 3.95-2.512 5.86-5.026 5.86-1.382 0-2.536-.585-3.103-1.46h-.045v5.657H75.27v-11.74zm15.714 2.716c0 .269.023.515.09.764a2.516 2.516 0 0 0 2.447 1.93c1.765 0 2.806-1.46 2.806-3.615 0-1.93-.95-3.5-2.74-3.5-1.154 0-2.218.83-2.49 2.041a2.485 2.485 0 0 0-.113.697v1.683zm-2.786-2.716a79.78 79.78 0 0 0-.09-3.637h2.446l.136 1.683h.045c.814-1.234 2.105-1.93 3.781-1.93 2.536 0 4.642 2.155 4.642 5.567 0 3.95-2.513 5.86-5.027 5.86-1.381 0-2.535-.585-3.102-1.46h-.045v5.657h-2.786v-11.74zm17.342 4.288a7.774 7.774 0 0 0 3.692.964c1.788 0 2.785-.831 2.785-2.064 0-1.145-.77-1.818-2.717-2.515-2.514-.899-4.12-2.223-4.12-4.4 0-2.47 2.082-4.355 5.387-4.355 1.654 0 2.876.36 3.669.763l-.68 2.223c-.543-.292-1.607-.718-3.033-.718-1.767 0-2.537.942-2.537 1.818 0 1.166.883 1.706 2.921 2.491 2.649.988 3.94 2.313 3.94 4.49 0 2.425-1.855 4.535-5.797 4.535-1.608 0-3.282-.45-4.12-.943l.61-2.29zm14.49-11.045v3.12h2.649v2.065h-2.649v4.827c0 1.325.362 2.02 1.427 2.02.475 0 .838-.067 1.087-.135l.045 2.11c-.406.158-1.132.27-2.015.27-1.018 0-1.879-.337-2.4-.897-.588-.63-.86-1.618-.86-3.054v-5.14h-1.585v-2.066h1.585V14.08l2.716-.651zm6.475 8.597c0 2.111 1.041 3.704 2.74 3.704 1.585 0 2.693-1.548 2.693-3.749 0-1.706-.768-3.66-2.672-3.66-1.97 0-2.761 1.888-2.761 3.705m8.31-.111c0 4.018-2.854 5.812-5.662 5.812-3.124 0-5.524-2.131-5.524-5.633 0-3.591 2.377-5.792 5.705-5.792 3.285 0 5.48 2.29 5.48 5.613m1.968-1.842c0-1.481-.023-2.537-.09-3.524h2.422l.092 2.088h.09c.544-1.55 1.834-2.335 3.011-2.335.272 0 .431.022.656.067v2.605a3.783 3.783 0 0 0-.813-.09c-1.337 0-2.242.852-2.492 2.087-.045.248-.09.539-.09.853v5.656h-2.786v-7.407zm14.357.786c.023-1.01-.431-2.67-2.287-2.67-1.722 0-2.446 1.547-2.56 2.67h4.847zm-4.846 1.931c.067 1.976 1.63 2.828 3.396 2.828 1.29 0 2.22-.18 3.057-.495l.408 1.909c-.952.38-2.264.673-3.85.673-3.578 0-5.683-2.176-5.683-5.521 0-3.031 1.856-5.882 5.389-5.882 3.578 0 4.755 2.919 4.755 5.321 0 .516-.044.918-.09 1.167h-7.382zm12.181-10.685c-.612 2.043-1.586 4.355-2.446 5.746l-1.698.157c.588-1.639 1.177-3.883 1.448-5.702l2.696-.201zm7.132 9c0-.224-.024-.493-.07-.718-.247-1.076-1.132-1.952-2.4-1.952-1.787 0-2.784 1.571-2.784 3.613 0 1.998.997 3.458 2.763 3.458 1.131 0 2.128-.763 2.4-1.953a3.04 3.04 0 0 0 .09-.808v-1.64zm2.784-9.561v12.862c0 1.122.045 2.335.091 3.075h-2.49l-.114-1.729h-.046c-.656 1.212-1.992 1.976-3.6 1.976-2.627 0-4.71-2.222-4.71-5.589-.022-3.659 2.287-5.837 4.937-5.837 1.517 0 2.604.629 3.101 1.437h.047v-6.195h2.784zm8.512 10.595c-1.969-.045-3.849.382-3.849 2.043 0 1.077.702 1.57 1.585 1.57 1.11 0 1.924-.717 2.174-1.502.067-.204.09-.428.09-.607V22.14zm.363 5.342l-.18-1.212h-.069c-.68.854-1.835 1.458-3.261 1.458-2.22 0-3.465-1.593-3.465-3.254 0-2.761 2.47-4.153 6.544-4.13v-.18c0-.719-.293-1.908-2.242-1.908-1.085 0-2.217.336-2.965.81l-.544-1.798c.816-.493 2.242-.965 3.985-.965 3.532 0 4.552 2.222 4.552 4.602v3.95c0 .989.045 1.955.158 2.627h-2.513zm4.979-7.677c0-1.257-.023-2.313-.09-3.255h2.445l.136 1.639h.068c.476-.853 1.677-1.886 3.51-1.886 1.925 0 3.918 1.234 3.918 4.692v6.486h-2.786v-6.172c0-1.572-.589-2.761-2.105-2.761-1.11 0-1.88.786-2.175 1.616-.09.248-.113.584-.113.898v6.42h-2.808v-7.677z" fill="#FFF"/><g transform="translate(61.565 35.913)"><mask id="f" fill="#fff"><use xlink:href="#e"/></mask><path d="M.17 10.922h1.367V3.476H.17v7.446zm1.522-9.537c.015.461-.327.83-.869.83A.81.81 0 0 1 0 1.386.83.83 0 0 1 .854.538c.51 0 .838.37.838.847zm2.732 4.106c0-.77-.015-1.4-.062-2.014h1.211l.077 1.23h.03C6.055 4 6.923 3.309 8.165 3.309c1.042 0 2.654.615 2.654 3.168v4.446H9.453V6.63c0-1.2-.45-2.2-1.74-2.2-.9 0-1.597.632-1.83 1.384-.062.17-.093.4-.093.631v4.477H4.424v-5.43zm14.359 1.016c0-.17-.017-.4-.063-.568-.201-.862-.946-1.57-1.97-1.57-1.413 0-2.25 1.23-2.25 2.877 0 1.507.744 2.754 2.22 2.754.914 0 1.753-.6 2-1.617a2.34 2.34 0 0 0 .063-.583V6.507zM20.148 0v9c0 .66.015 1.414.063 1.922h-1.226l-.063-1.292h-.031c-.418.83-1.334 1.461-2.56 1.461-1.816 0-3.213-1.522-3.213-3.784-.016-2.478 1.536-3.999 3.368-3.999 1.148 0 1.924.538 2.266 1.138h.031V0h1.365zm2.89 10.922h1.366V3.476h-1.366v7.446zm1.521-9.537c.016.461-.325.83-.868.83a.81.81 0 0 1-.823-.83.83.83 0 0 1 .853-.847c.513 0 .838.37.838.847zM27.292 5.8c0-.878-.017-1.63-.063-2.324h1.195l.046 1.461h.063c.341-.999 1.164-1.629 2.08-1.629.155 0 .264.015.388.045v1.278a2.003 2.003 0 0 0-.467-.046c-.962 0-1.644.722-1.83 1.738-.03.184-.062.4-.062.63v3.969h-1.35V5.799zm5.76 5.122h1.366V3.476h-1.366v7.446zm1.52-9.537c.016.461-.326.83-.869.83a.808.808 0 0 1-.822-.83.83.83 0 0 1 .853-.847c.512 0 .839.37.839.847zm2.733 4.106c0-.77-.017-1.4-.063-2.014h1.212l.077 1.23h.03c.374-.707 1.242-1.399 2.484-1.399 1.04 0 2.653.615 2.653 3.168v4.446h-1.364V6.63c0-1.2-.452-2.2-1.74-2.2-.9 0-1.599.632-1.831 1.384-.062.17-.094.4-.094.631v4.477h-1.364v-5.43z" fill="#FFF" mask="url(#f)"/></g></g></svg>