<svg width="206" height="59" xmlns="http://www.w3.org/2000/svg" xmlns:xlink="http://www.w3.org/1999/xlink"><defs><path d="M6.634 0A6.632 6.632 0 0 0 0 6.629V52.37C0 56.032 2.97 59 6.634 59h191.859a6.632 6.632 0 0 0 6.636-6.629V6.63a6.632 6.632 0 0 0-6.636-6.629H6.633z" id="a"/><mask id="b" x="0" y="0" width="205.129" height="59" fill="#fff"><use xlink:href="#a"/></mask></defs><g fill="none" fill-rule="evenodd"><use stroke="#3F3F3F" mask="url(#b)" stroke-width="2" fill="#000" xlink:href="#a"/><path d="M46.906 28.834c0-5.038 4.027-7.113 4.027-7.113s-2.06-3.754-7.291-3.754c-3.04 0-5.376 1.744-6.635 1.744-1.463 0-3.651-1.64-6.472-1.64-4.337 0-8.96 3.917-8.96 11.382 0 7.588 5.463 17.027 9.787 17.027 1.508 0 3.826-1.533 6.16-1.533 2.294 0 3.982 1.478 6.159 1.478 4.735 0 8.24-9.952 8.24-9.952s-5.015-1.958-5.015-7.64M42.24 14.94c2.431-2.943 1.924-6 1.924-6s-3.4.015-5.846 3.267c-2.174 2.89-1.62 5.362-1.62 5.362s2.947.515 5.542-2.629m27.612-3.91c.656-.431 1.498-.732 2.539-.732 1.67 0 2.826.876 2.826 2.372 0 1.194-.856 2.1-1.984 2.359v.028c1.356.144 2.342 1.036 2.342 2.43 0 2.014-1.728 2.82-3.483 2.82-.87 0-1.784-.188-2.512-.634l.328-.978c.515.301 1.37.59 2.155.59 1.428 0 2.212-.778 2.212-1.841 0-1.452-1.384-1.869-2.61-1.869h-.572v-.95h.571c1.27 0 2.255-.79 2.255-1.782 0-.978-.686-1.524-1.728-1.524-.726 0-1.483.302-1.997.632l-.342-.92zm11.554 5.566c-1.37-.03-2.925.216-2.925 1.567 0 .82.542 1.208 1.183 1.208.9 0 1.47-.575 1.67-1.165.044-.13.072-.273.072-.403v-1.207zm.185 3.551l-.1-.877h-.043c-.384.547-1.127 1.036-2.111 1.036-1.399 0-2.113-.992-2.113-1.999 0-1.683 1.485-2.602 4.154-2.588v-.144c0-.575-.157-1.612-1.57-1.612-.643 0-1.313.203-1.8.519l-.284-.834c.57-.374 1.398-.618 2.27-.618 2.11 0 2.624 1.452 2.624 2.847v2.603c0 .602.03 1.192.114 1.667h-1.14zm7.829-6.959v1.02h-2.996v5.94h-1.241v-6.96zm2.994 4.126c0 .187.029.36.057.518.23.878.985 1.48 1.884 1.48 1.327 0 2.097-1.09 2.097-2.687 0-1.396-.728-2.588-2.054-2.588-.857 0-1.656.618-1.899 1.566a2.08 2.08 0 0 0-.085.518v1.193zm-1.241-1.854c0-.891-.03-1.611-.058-2.271h1.128l.057 1.192h.029c.513-.849 1.327-1.35 2.454-1.35 1.67 0 2.925 1.422 2.925 3.535 0 2.503-1.512 3.74-3.14 3.74-.912 0-1.71-.403-2.125-1.094h-.029v3.782h-1.241V15.46zm9-2.272l1.513 4.113c.156.46.327 1.006.441 1.423h.03c.127-.417.27-.95.441-1.452l1.37-4.084h1.328l-1.884 4.961c-.9 2.387-1.513 3.609-2.37 4.357-.612.547-1.226.762-1.54.819l-.315-1.064a3.32 3.32 0 0 0 1.1-.618c.343-.273.77-.762 1.056-1.409.058-.13.1-.23.1-.302 0-.072-.029-.173-.086-.331l-2.554-6.413h1.37zm7.472 2.918h.6c1.056 0 1.77-.489 1.77-1.135 0-.618-.557-1.008-1.343-1.008a3.32 3.32 0 0 0-1.67.49l-.313-.776a4.362 4.362 0 0 1 2.298-.633c1.056 0 2.34.475 2.34 1.826 0 .863-.786 1.423-1.555 1.582v.028c1.027.086 1.883.72 1.883 1.74 0 1.51-1.527 2.07-2.983 2.07-.813 0-1.627-.215-2.24-.56l.328-.848c.5.273 1.17.475 1.827.475 1.042 0 1.698-.504 1.698-1.195 0-.933-.97-1.193-2.012-1.193h-.628v-.863zm7.302-2.918v2.933c0 1.107-.015 1.797-.072 2.79l.043.014a34.62 34.62 0 0 1 1.113-2.144l2.155-3.593h1.47v6.96h-1.199V17.2c0-1.136.03-1.726.086-2.847h-.043a40.005 40.005 0 0 1-1.141 2.156c-.658 1.078-1.414 2.416-2.156 3.639h-1.44v-6.96h1.184zm11.939 0v1.006h-2.154v5.954h-1.241v-5.954h-2.156v-1.006zm5.861 2.803c.015-.805-.327-2.056-1.74-2.056-1.27 0-1.827 1.18-1.926 2.056h3.666zm-3.681.907c.028 1.711 1.113 2.416 2.37 2.416.898 0 1.44-.158 1.911-.36l.214.905c-.442.203-1.199.432-2.297.432-2.127 0-3.397-1.409-3.397-3.51 0-2.097 1.227-3.75 3.24-3.75 2.254 0 2.854 1.998 2.854 3.277 0 .258-.029.46-.042.59h-4.853zm11.778-.792h.943c.927 0 1.883-.273 1.883-1.092 0-.69-.6-1.021-1.855-1.021-.414 0-.67.028-.97.058v2.055zm-.013 3.208c.356.043.614.057 1.013.057.842 0 2.097-.201 2.097-1.209 0-1.006-.999-1.222-2.196-1.222h-.914v2.374zm-1.185-6.04c.485-.086 1.384-.159 2.198-.159 1.156 0 3.068.188 3.068 1.74 0 .863-.657 1.395-1.441 1.568v.03c1.013.143 1.755.718 1.755 1.724 0 1.826-2.284 2.056-3.638 2.056-.771 0-1.57-.056-1.942-.085v-6.874zM74.999 36.84l-1.624-5.104c-.172-.52-.494-1.749-.968-3.681h-.058c-.19.831-.495 2.058-.913 3.681l-1.595 5.103h5.158zm5.615 8.148h-3.278l-1.796-5.74h-6.241l-1.711 5.74h-3.193l6.185-19.543h3.82l6.214 19.543zm12.769-7.105c0-1.371-.303-2.503-.912-3.391-.666-.929-1.56-1.394-2.68-1.394-.759 0-1.449.26-2.065.77-.618.513-1.022 1.184-1.212 2.016-.095.386-.143.704-.143.953v2.35c0 1.025.31 1.89.928 2.596.617.708 1.42 1.06 2.408 1.06 1.158 0 2.06-.456 2.706-1.364.646-.908.97-2.107.97-3.596m3.136-.115c0 2.397-.636 4.292-1.91 5.683-1.14 1.237-2.556 1.855-4.247 1.855-1.825 0-3.136-.666-3.934-2h-.058v7.424h-3.077V35.535c0-1.507-.04-3.053-.114-4.64h2.706l.172 2.234h.058c1.026-1.682 2.584-2.522 4.674-2.522 1.634 0 2.999.656 4.09 1.97 1.094 1.316 1.64 3.046 1.64 5.191m12.798.115c0-1.371-.305-2.503-.914-3.391-.666-.929-1.557-1.394-2.678-1.394-.76 0-1.45.26-2.067.77-.618.513-1.02 1.184-1.21 2.016-.093.386-.144.704-.144.953v2.35c0 1.025.31 1.89.924 2.596.62.705 1.421 1.06 2.412 1.06 1.158 0 2.061-.456 2.706-1.364.647-.908.97-2.107.97-3.596m3.136-.115c0 2.397-.636 4.292-1.911 5.683-1.139 1.237-2.555 1.855-4.246 1.855-1.825 0-3.136-.666-3.933-2h-.058v7.424h-3.076V35.535c0-1.507-.04-3.053-.115-4.64h2.707l.172 2.234h.058c1.024-1.682 2.582-2.522 4.674-2.522 1.632 0 2.997.656 4.091 1.97 1.09 1.316 1.637 3.046 1.637 5.191m17.814 1.739c0 1.663-.567 3.015-1.706 4.06-1.251 1.14-2.994 1.71-5.233 1.71-2.068 0-3.725-.405-4.979-1.217l.713-2.61a8.326 8.326 0 0 0 4.45 1.249c1.158 0 2.06-.267 2.71-.8.645-.531.966-1.245.966-2.135 0-.793-.266-1.46-.798-2.002-.53-.543-1.415-1.046-2.65-1.512-3.365-1.276-5.044-3.145-5.044-5.603 0-1.607.589-2.925 1.767-3.949 1.175-1.026 2.743-1.54 4.704-1.54 1.749 0 3.201.31 4.36.929l-.77 2.552c-1.082-.599-2.307-.899-3.677-.899-1.082 0-1.928.272-2.534.812a2.334 2.334 0 0 0-.77 1.77c0 .773.293 1.411.882 1.913.513.465 1.443.967 2.795 1.508 1.654.677 2.867 1.469 3.648 2.377.779.904 1.166 2.036 1.166 3.387m10.176-6.261h-3.391v6.842c0 1.74.597 2.609 1.795 2.609.55 0 1.006-.049 1.367-.145l.085 2.377c-.606.23-1.405.347-2.394.347-1.215 0-2.165-.378-2.85-1.131-.684-.755-1.028-2.02-1.028-3.8v-7.102h-2.02v-2.35h2.02v-2.58l3.025-.929v3.51h3.391v2.352zm12.114 4.681c0-1.3-.273-2.414-.826-3.344-.645-1.124-1.568-1.686-2.763-1.686-1.237 0-2.177.564-2.822 1.686-.554.932-.826 2.064-.826 3.403 0 1.3.272 2.415.826 3.342.665 1.125 1.595 1.687 2.794 1.687 1.175 0 2.098-.574 2.763-1.716.568-.947.854-2.073.854-3.372m3.193-.1c0 2.165-.608 3.944-1.825 5.335-1.274 1.431-2.966 2.145-5.075 2.145-2.032 0-3.652-.686-4.858-2.057-1.207-1.373-1.81-3.103-1.81-5.19 0-2.185.62-3.973 1.866-5.363 1.243-1.393 2.92-2.09 5.03-2.09 2.033 0 3.668.687 4.902 2.06 1.182 1.332 1.77 3.051 1.77 5.16m10.004-4.177a5.24 5.24 0 0 0-.97-.087c-1.082 0-1.92.416-2.508 1.249-.514.734-.77 1.661-.77 2.782v7.394h-3.076l.028-9.654a77.86 77.86 0 0 0-.115-4.436h2.68l.113 2.695h.085c.326-.925.838-1.672 1.54-2.232.685-.503 1.426-.754 2.224-.754.285 0 .54.02.77.057v2.986zm10.83 2.813c.02-.928-.18-1.73-.597-2.407-.532-.87-1.352-1.305-2.453-1.305-1.007 0-1.825.424-2.45 1.276-.513.677-.816 1.489-.91 2.435h6.41v.001zm2.935.812c0 .561-.036 1.035-.113 1.42h-9.233c.037 1.392.483 2.457 1.34 3.192.778.656 1.784.985 3.02.985 1.367 0 2.614-.222 3.736-.667l.482 2.174c-1.31.581-2.858.87-4.643.87-2.15 0-3.835-.643-5.062-1.928-1.225-1.285-1.838-3.01-1.838-5.175 0-2.125.57-3.894 1.713-5.305 1.195-1.507 2.81-2.26 4.843-2.26 1.996 0 3.507.753 4.534 2.26.812 1.196 1.221 2.676 1.221 4.434z" fill="#FFF"/></g></svg>