<svg width="206" height="59" xmlns="http://www.w3.org/2000/svg" xmlns:xlink="http://www.w3.org/1999/xlink"><defs><path d="M198.493 0H6.633A6.632 6.632 0 0 0 0 6.629V52.37C0 56.032 2.97 59 6.634 59h191.859a6.632 6.632 0 0 0 6.636-6.629V6.63a6.632 6.632 0 0 0-6.636-6.629z" id="a"/><mask id="b" x="0" y="0" width="205.129" height="59" fill="#fff"><use xlink:href="#a"/></mask></defs><g fill="none" fill-rule="evenodd"><use stroke="#3F3F3F" mask="url(#b)" stroke-width="2" fill="#000" xlink:href="#a"/><path d="M163.911 44.236h2.861V25.062h-2.861v19.174zm25.777-12.267l-3.28 8.313h-.099l-3.404-8.313h-3.083l5.106 11.618-2.912 6.463h2.985l7.869-18.081h-3.182zm-16.23 10.089c-.938 0-2.245-.47-2.245-1.629 0-1.48 1.627-2.047 3.033-2.047 1.258 0 1.851.272 2.615.641-.221 1.777-1.752 3.035-3.404 3.035zm.344-10.508c-2.071 0-4.218.912-5.106 2.934l2.541 1.06c.543-1.06 1.555-1.405 2.615-1.405 1.48 0 2.985.889 3.01 2.467v.197c-.519-.296-1.628-.74-2.985-.74-2.739 0-5.526 1.505-5.526 4.317 0 2.566 2.245 4.218 4.761 4.218 1.924 0 2.985-.864 3.65-1.874h.1v1.48h2.762v-7.35c0-3.405-2.54-5.304-5.822-5.304zm-17.685 2.753h-4.07V27.73h4.07c2.139 0 3.354 1.773 3.354 3.286 0 1.487-1.215 3.287-3.354 3.287zm-.075-9.24h-6.857v19.173h2.862V36.97h3.995c3.173 0 6.29-2.296 6.29-5.955 0-3.658-3.117-5.954-6.29-5.954zM118.65 42.06c-1.977 0-3.632-1.655-3.632-3.929 0-2.297 1.656-3.977 3.632-3.977 1.952 0 3.484 1.68 3.484 3.977 0 2.274-1.532 3.929-3.484 3.929zm3.286-9.018h-.099c-.642-.766-1.877-1.459-3.435-1.459-3.26 0-6.25 2.867-6.25 6.548 0 3.658 2.99 6.499 6.25 6.499 1.558 0 2.793-.691 3.435-1.483h.099v.94c0 2.495-1.334 3.829-3.484 3.829-1.754 0-2.842-1.26-3.286-2.323l-2.496 1.038c.717 1.73 2.62 3.855 5.782 3.855 3.36 0 6.202-1.976 6.202-6.795v-11.71h-2.718v1.062zm4.694 11.193h2.867V25.062h-2.867v19.174zm7.092-6.326c-.073-2.52 1.952-3.805 3.41-3.805 1.137 0 2.1.568 2.422 1.384l-5.832 2.421zm8.896-2.174c-.544-1.458-2.2-4.152-5.584-4.152-3.36 0-6.153 2.645-6.153 6.524 0 3.656 2.768 6.523 6.473 6.523 2.99 0 4.72-1.83 5.436-2.891l-2.223-1.483c-.741 1.088-1.754 1.804-3.213 1.804-1.457 0-2.494-.667-3.163-1.977l8.723-3.607-.296-.741zm-69.49-2.15v2.767h6.622c-.198 1.557-.716 2.693-1.507 3.485-.964.963-2.472 2.025-5.115 2.025-4.076 0-7.264-3.286-7.264-7.362 0-4.078 3.188-7.364 7.264-7.364 2.2 0 3.805.865 4.992 1.977l1.952-1.952c-1.656-1.582-3.856-2.792-6.944-2.792-5.585 0-10.28 4.546-10.28 10.13 0 5.584 4.695 10.13 10.28 10.13 3.015 0 5.288-.988 7.067-2.84 1.828-1.829 2.397-4.398 2.397-6.475 0-.642-.05-1.235-.149-1.729h-9.315zM90.12 42.06c-1.977 0-3.683-1.63-3.683-3.953 0-2.348 1.706-3.953 3.683-3.953 1.976 0 3.68 1.605 3.68 3.953 0 2.322-1.704 3.953-3.68 3.953zm0-10.477c-3.608 0-6.548 2.744-6.548 6.524 0 3.755 2.94 6.523 6.548 6.523s6.547-2.768 6.547-6.523c0-3.78-2.94-6.524-6.547-6.524zm14.284 10.477c-1.976 0-3.682-1.63-3.682-3.953 0-2.348 1.706-3.953 3.682-3.953 1.977 0 3.681 1.605 3.681 3.953 0 2.322-1.704 3.953-3.68 3.953zm0-10.477c-3.608 0-6.548 2.744-6.548 6.524 0 3.755 2.94 6.523 6.548 6.523 3.607 0 6.548-2.768 6.548-6.523 0-3.78-2.941-6.524-6.548-6.524z" fill="#FFF"/><path d="M10.521 10.607c-.446.472-.71 1.205-.71 2.155v33.92c0 .95.264 1.682.71 2.154l.113.11 19.002-19v-.449L10.634 10.495l-.113.112z" fill="#00D3FF"/><path d="M35.969 36.282l-6.334-6.336v-.449l6.335-6.335.144.082 7.503 4.263c2.143 1.219 2.143 3.21 0 4.43L36.114 36.2l-.145.08z" fill="#FFCF00"/><path d="M36.113 36.2l-6.477-6.479-19.115 19.115c.707.748 1.873.84 3.188.093L36.113 36.2" fill="#F3314A"/><path d="M36.113 23.243L13.71 10.513c-1.315-.746-2.481-.654-3.188.094l19.115 19.115 6.477-6.479z" fill="#00F076"/><g fill="#FFF"><path d="M72.285 9.493h-3.303v.484c0 .806-.073 1.909-.217 3.307-.144 1.398-.427 2.548-.85 3.449h4.37v-7.24zm-4.513-1.119h5.767v8.359h.854v3.33h-1.119V17.85h-6.265v2.211h-1.117v-3.33h.737c.763-1.15 1.143-3.475 1.143-6.974V8.374zm8.608 4.881c0 1.142.308 2.042.921 2.7.616.656 1.385.985 2.312.985.945 0 1.72-.332 2.33-.995.611-.665.915-1.607.915-2.825 0-.772-.13-1.446-.39-2.02a3.015 3.015 0 0 0-1.145-1.34 3.104 3.104 0 0 0-1.69-.473c-.889 0-1.652.304-2.291.913-.641.612-.961 1.628-.961 3.055m-1.292-.02c0-1.572.421-2.803 1.265-3.694.845-.889 1.936-1.335 3.272-1.335.875 0 1.665.21 2.366.627a4.1 4.1 0 0 1 1.607 1.749c.368.748.552 1.595.552 2.543 0 .962-.194 1.822-.581 2.58-.388.758-.937 1.333-1.649 1.723a4.713 4.713 0 0 1-2.302.584c-.892 0-1.688-.214-2.39-.646a4.15 4.15 0 0 1-1.599-1.764 5.362 5.362 0 0 1-.54-2.366m17.029 1.292l1.254.317c-.263 1.03-.736 1.815-1.42 2.357-.682.541-1.516.811-2.503.811-1.023 0-1.853-.208-2.493-.623-.64-.418-1.127-1.02-1.46-1.807a6.448 6.448 0 0 1-.501-2.542c0-.986.187-1.848.566-2.583a3.878 3.878 0 0 1 1.608-1.674 4.708 4.708 0 0 1 2.298-.57c.948 0 1.745.241 2.392.722.648.483 1.098 1.161 1.351 2.038l-1.233.29c-.22-.69-.54-1.192-.957-1.506-.42-.314-.944-.472-1.578-.472-.728 0-1.337.174-1.825.524a2.756 2.756 0 0 0-1.033 1.405 5.673 5.673 0 0 0-.297 1.82c0 .806.118 1.51.352 2.111.236.602.6 1.05 1.096 1.348a3.084 3.084 0 0 0 1.61.446c.702 0 1.297-.202 1.784-.607.487-.406.816-1.006.989-1.805m4.359 3.323V9.493h-3.123V8.374h7.512v1.119h-3.135v8.358z"/><path d="M100.786 8.375h1.268l3.09 5.805 2.703-5.805h1.247l-3.555 7.37c-.444.921-.809 1.525-1.094 1.809-.283.285-.69.426-1.22.426-.323 0-.72-.074-1.191-.225V16.68c.337.193.692.29 1.067.29.306 0 .57-.097.792-.294.223-.195.467-.643.734-1.34l-3.84-6.962zm8.971 0h7.453v9.477h-1.26V9.493h-4.94v8.359h-1.253zm9.131 9.476V8.374h1.254v3.891h4.925v-3.89h1.255v9.476h-1.255v-4.467h-4.925v4.467zm10.022-4.596c0 1.142.308 2.042.921 2.7.616.656 1.385.985 2.312.985.945 0 1.72-.332 2.331-.995.61-.665.914-1.607.914-2.825 0-.772-.13-1.446-.39-2.02a3.015 3.015 0 0 0-1.144-1.34 3.104 3.104 0 0 0-1.692-.473c-.888 0-1.65.304-2.29.913-.64.612-.961 1.628-.961 3.055m-1.292-.02c0-1.572.421-2.803 1.265-3.694.845-.889 1.936-1.335 3.272-1.335.875 0 1.665.21 2.366.627a4.1 4.1 0 0 1 1.607 1.749c.368.748.552 1.595.552 2.543 0 .962-.194 1.822-.581 2.58-.387.758-.937 1.333-1.649 1.723a4.713 4.713 0 0 1-2.301.584c-.893 0-1.69-.214-2.392-.646a4.15 4.15 0 0 1-1.598-1.764 5.362 5.362 0 0 1-.54-2.366m14.736 3.497h2.36c.404 0 .69-.015.853-.046a2.05 2.05 0 0 0 .724-.258c.193-.121.354-.297.478-.526.127-.232.187-.498.187-.8 0-.352-.09-.66-.27-.92a1.431 1.431 0 0 0-.754-.55c-.32-.105-.782-.158-1.386-.158h-2.192v3.258zm0-4.377h2.05c.556 0 .954-.036 1.195-.11.32-.094.56-.252.721-.472.162-.219.243-.495.243-.827 0-.315-.076-.592-.226-.83a1.154 1.154 0 0 0-.646-.493c-.281-.087-.762-.13-1.443-.13h-1.894v2.862zm-1.254 5.496V8.375h3.556c.724 0 1.304.095 1.741.287.438.192.781.487 1.028.886.249.398.372.816.372 1.25 0 .406-.11.788-.329 1.145-.22.357-.552.647-.995.866.573.168 1.013.454 1.32.859.31.406.463.884.463 1.435 0 .446-.094.858-.28 1.238-.187.382-.42.677-.696.884-.275.207-.622.363-1.038.468-.415.106-.924.159-1.528.159h-3.614z"/></g></g></svg>