<svg width="206" height="59" xmlns="http://www.w3.org/2000/svg" xmlns:xlink="http://www.w3.org/1999/xlink"><defs><path d="M198.493 0H6.633A6.632 6.632 0 0 0 0 6.629V52.37C0 56.032 2.97 59 6.634 59h191.859a6.632 6.632 0 0 0 6.636-6.629V6.63a6.632 6.632 0 0 0-6.636-6.629z" id="a"/><mask id="b" x="0" y="0" width="205.129" height="59" fill="#fff"><use xlink:href="#a"/></mask><path id="c" d="M3.62 10.26h3.536V.296H.082v9.966H3.62z"/></defs><g fill="none" fill-rule="evenodd"><use stroke="#3F3F3F" mask="url(#b)" stroke-width="2" fill="#000" xlink:href="#a"/><path d="M62.848 16.058l1.216-.316c.093.47.34.938.74 1.407.401.47.932.703 1.595.703.674 0 1.206-.172 1.597-.52.389-.344.585-.764.585-1.254 0-.53-.205-.953-.618-1.266-.412-.314-.974-.47-1.683-.47h-.612V13.23c.588 0 1.037-.034 1.348-.102.31-.068.586-.24.826-.519.238-.278.358-.595.358-.95 0-.421-.164-.787-.49-1.098-.327-.31-.77-.466-1.325-.466-.486 0-.901.12-1.246.364a1.87 1.87 0 0 0-.714.967c-.13.4-.196.7-.196.897l-1.223-.276c.302-2.047 1.434-3.07 3.393-3.07.942 0 1.688.263 2.241.786.552.523.829 1.136.829 1.837 0 .899-.426 1.595-1.277 2.09a2.34 2.34 0 0 1 1.233.833c.332.418.498.92.498 1.502 0 .827-.322 1.52-.964 2.08-.642.558-1.493.838-2.555.838-1.822 0-3.007-.962-3.556-2.886m9.962-1.236h3.269l-1.006-2.667a26.572 26.572 0 0 1-.685-2 12.123 12.123 0 0 1-.52 1.842l-1.057 2.825zm-2.78 3.958l3.702-9.637h1.373l3.944 9.637h-1.453l-1.124-2.917h-4.03l-1.058 2.917H70.03zm10.843-1.137h2.4c.412 0 .702-.015.868-.046.293-.053.539-.141.737-.263a1.41 1.41 0 0 0 .486-.535c.128-.236.19-.506.19-.813a1.6 1.6 0 0 0-.275-.935 1.456 1.456 0 0 0-.767-.56c-.326-.107-.795-.16-1.41-.16h-2.229v3.312zm0-4.45h2.084c.566 0 .971-.038 1.216-.112.325-.096.57-.257.734-.481.164-.222.246-.503.246-.84 0-.32-.077-.603-.23-.845a1.174 1.174 0 0 0-.656-.5c-.286-.09-.775-.134-1.467-.134h-1.927v2.912zm-1.275 5.588V9.142h3.616c.736 0 1.326.098 1.771.293.445.195.794.495 1.046.9s.378.83.378 1.273c0 .411-.112.8-.335 1.163-.223.363-.562.658-1.012.881.583.17 1.03.462 1.343.873.314.413.47.9.47 1.46 0 .453-.095.872-.285 1.258-.19.389-.426.69-.707.9-.28.21-.632.369-1.055.475-.422.108-.94.162-1.555.162h-3.675zm9.889-3.959h3.268l-1.006-2.667a26.572 26.572 0 0 1-.684-2 12.123 12.123 0 0 1-.52 1.842l-1.058 2.825zm-2.78 3.958l3.7-9.637h1.375l3.944 9.637h-1.454l-1.123-2.917h-4.03l-1.058 2.917h-1.355zm9.66.001V9.141h1.275v3.957h5.009V9.142h1.276v9.637h-1.276v-4.543h-5.009v4.543zm11.718 0v-8.5h-3.176V9.142h7.64v1.138h-3.19v8.5zm6.63-3.959h3.268l-1.006-2.667a26.572 26.572 0 0 1-.685-2 12.123 12.123 0 0 1-.52 1.842l-1.057 2.825zm-2.781 3.958l3.702-9.637h1.373l3.944 9.637H119.5l-1.124-2.917h-4.03l-1.058 2.917h-1.354z" fill="#FFF"/><path d="M127.387 9.142v4.22c.626 0 1.057-.115 1.291-.345.234-.23.534-.77.897-1.62.268-.63.488-1.077.662-1.338.171-.26.419-.48.738-.658a2.13 2.13 0 0 1 1.052-.265c.416 0 .676.004.776.013v1.104l-.25-.006a11.92 11.92 0 0 0-.257-.008c-.406 0-.71.1-.906.296-.202.198-.433.618-.69 1.262-.281.697-.524 1.171-.73 1.424-.205.253-.504.462-.895.629.632.175 1.242.749 1.835 1.722l1.985 3.208h-1.578l-1.61-2.617c-.43-.692-.791-1.18-1.085-1.466-.294-.286-.706-.427-1.235-.427v4.51h-1.31v-4.51c-.42 0-.791.11-1.113.332-.323.221-.7.698-1.129 1.43l-.078.131-1.61 2.617h-1.584l1.986-3.208c.604-.977 1.217-1.552 1.839-1.722a2.348 2.348 0 0 1-.848-.564c-.22-.233-.48-.73-.781-1.489-.277-.687-.514-1.12-.71-1.294-.198-.176-.492-.264-.882-.264l-.513.014V9.15c.049-.01.294-.013.736-.013.421 0 .787.086 1.096.259.309.173.55.39.726.65.175.262.401.712.676 1.352.37.863.668 1.405.899 1.623.23.219.66.333 1.29.342v-4.22h1.31zm6.201 0h1.157v7.632l5.128-7.632h1.281v9.638h-1.157v-7.614l-5.134 7.614h-1.275zm11.692 9.638v-8.5h-3.175V9.142h7.639v1.138h-3.189v8.5zm5.375-9.638h1.157v7.632l5.128-7.632h1.281v9.638h-1.157v-7.614l-5.134 7.614h-1.275z" fill="#FFF"/><g transform="translate(162.609 8.683)"><mask id="d" fill="#fff"><use xlink:href="#c"/></mask><path d="M.082 7.375l1.216-.316c.094.47.34.938.74 1.407.402.47.933.703 1.596.703.673 0 1.205-.171 1.597-.52.388-.344.585-.764.585-1.253 0-.53-.206-.953-.619-1.266-.411-.315-.973-.471-1.682-.471h-.612v-1.11c.587 0 1.036-.034 1.348-.102.31-.068.586-.241.826-.52.237-.278.358-.595.358-.95 0-.42-.165-.786-.49-1.098-.327-.31-.77-.466-1.325-.466-.486 0-.902.121-1.247.365a1.87 1.87 0 0 0-.713.967c-.131.4-.196.7-.196.896L.24 3.366C.543 1.319 1.674.295 3.634.295c.941 0 1.688.263 2.24.786.552.524.83 1.137.83 1.837 0 .899-.427 1.595-1.277 2.09a2.34 2.34 0 0 1 1.232.833c.333.418.498.92.498 1.502 0 .827-.322 1.521-.963 2.08-.643.558-1.493.838-2.555.838-1.823 0-3.008-.962-3.557-2.886" fill="#FFF" mask="url(#d)"/></g><path d="M163.911 44.236h2.861V25.062h-2.861v19.174zm25.777-12.267l-3.28 8.313h-.099l-3.404-8.313h-3.083l5.106 11.618-2.912 6.463h2.985l7.869-18.081h-3.182zm-16.23 10.089c-.938 0-2.245-.47-2.245-1.629 0-1.48 1.627-2.047 3.033-2.047 1.258 0 1.851.272 2.615.641-.221 1.777-1.752 3.035-3.404 3.035zm.344-10.508c-2.071 0-4.218.912-5.106 2.934l2.541 1.06c.543-1.06 1.555-1.405 2.615-1.405 1.48 0 2.985.889 3.01 2.467v.197c-.519-.296-1.628-.74-2.985-.74-2.739 0-5.526 1.505-5.526 4.317 0 2.566 2.245 4.218 4.761 4.218 1.924 0 2.985-.864 3.65-1.874h.1v1.48h2.762v-7.35c0-3.405-2.54-5.304-5.822-5.304zm-17.685 2.753h-4.07V27.73h4.07c2.139 0 3.354 1.773 3.354 3.286 0 1.487-1.215 3.287-3.354 3.287zm-.075-9.24h-6.857v19.173h2.862V36.97h3.995c3.173 0 6.29-2.296 6.29-5.955 0-3.658-3.117-5.954-6.29-5.954zM118.65 42.06c-1.977 0-3.632-1.655-3.632-3.929 0-2.297 1.656-3.977 3.632-3.977 1.952 0 3.484 1.68 3.484 3.977 0 2.274-1.532 3.929-3.484 3.929zm3.286-9.018h-.099c-.642-.766-1.877-1.459-3.435-1.459-3.26 0-6.25 2.867-6.25 6.548 0 3.658 2.99 6.499 6.25 6.499 1.558 0 2.793-.691 3.435-1.483h.099v.94c0 2.495-1.334 3.829-3.484 3.829-1.754 0-2.842-1.26-3.286-2.323l-2.496 1.038c.717 1.73 2.62 3.855 5.782 3.855 3.36 0 6.202-1.976 6.202-6.795v-11.71h-2.718v1.062zm4.694 11.193h2.867V25.062h-2.867v19.174zm7.092-6.326c-.073-2.52 1.952-3.805 3.41-3.805 1.137 0 2.1.568 2.422 1.384l-5.832 2.421zm8.896-2.174c-.544-1.458-2.2-4.152-5.584-4.152-3.36 0-6.153 2.645-6.153 6.524 0 3.656 2.768 6.523 6.473 6.523 2.99 0 4.72-1.83 5.436-2.891l-2.223-1.483c-.741 1.088-1.754 1.804-3.213 1.804-1.457 0-2.494-.667-3.163-1.977l8.723-3.607-.296-.741zm-69.49-2.15v2.767h6.622c-.198 1.557-.716 2.693-1.507 3.485-.964.963-2.472 2.025-5.115 2.025-4.076 0-7.264-3.286-7.264-7.362 0-4.078 3.188-7.364 7.264-7.364 2.2 0 3.805.865 4.992 1.977l1.952-1.952c-1.656-1.582-3.856-2.792-6.944-2.792-5.585 0-10.28 4.546-10.28 10.13 0 5.584 4.695 10.13 10.28 10.13 3.015 0 5.288-.988 7.067-2.84 1.828-1.829 2.397-4.398 2.397-6.475 0-.642-.05-1.235-.149-1.729h-9.315zM90.12 42.06c-1.977 0-3.683-1.63-3.683-3.953 0-2.348 1.706-3.953 3.683-3.953 1.976 0 3.68 1.605 3.68 3.953 0 2.322-1.704 3.953-3.68 3.953zm0-10.477c-3.608 0-6.548 2.744-6.548 6.524 0 3.755 2.94 6.523 6.548 6.523s6.547-2.768 6.547-6.523c0-3.78-2.94-6.524-6.547-6.524zm14.284 10.477c-1.976 0-3.682-1.63-3.682-3.953 0-2.348 1.706-3.953 3.682-3.953 1.977 0 3.681 1.605 3.681 3.953 0 2.322-1.704 3.953-3.68 3.953zm0-10.477c-3.608 0-6.548 2.744-6.548 6.524 0 3.755 2.94 6.523 6.548 6.523 3.607 0 6.548-2.768 6.548-6.523 0-3.78-2.941-6.524-6.548-6.524z" fill="#FFF"/><path d="M10.521 10.607c-.446.472-.71 1.205-.71 2.155v33.92c0 .95.264 1.682.71 2.154l.113.11 19.002-19v-.449L10.634 10.495l-.113.112z" fill="#00D3FF"/><path d="M35.969 36.282l-6.334-6.336v-.449l6.335-6.335.144.082 7.503 4.263c2.143 1.219 2.143 3.21 0 4.43L36.114 36.2l-.145.08z" fill="#FFCF00"/><path d="M36.113 36.2l-6.477-6.479-19.115 19.115c.707.748 1.873.84 3.188.093L36.113 36.2" fill="#F3314A"/><path d="M36.113 23.243L13.71 10.513c-1.315-.746-2.481-.654-3.188.094l19.115 19.115 6.477-6.479z" fill="#00F076"/></g></svg>