<svg width="206" height="59" xmlns="http://www.w3.org/2000/svg" xmlns:xlink="http://www.w3.org/1999/xlink"><defs><path d="M198.493 0H6.633A6.632 6.632 0 0 0 0 6.629V52.37C0 56.032 2.97 59 6.634 59h191.859a6.632 6.632 0 0 0 6.636-6.629V6.63a6.632 6.632 0 0 0-6.636-6.629z" id="a"/><mask id="b" x="0" y="0" width="205.129" height="59" fill="#fff"><use xlink:href="#a"/></mask></defs><g fill="none" fill-rule="evenodd"><use stroke="#3F3F3F" mask="url(#b)" stroke-width="2" fill="#000" xlink:href="#a"/><path d="M146.731 28.79h2.484V12.144h-2.484v16.644zm22.376-10.65l-2.847 7.216h-.086l-2.955-7.216h-2.676l4.432 10.086-2.527 5.61h2.59l6.832-15.696h-2.763zm-14.089 8.758c-.814 0-1.948-.407-1.948-1.414 0-1.284 1.413-1.777 2.633-1.777 1.092 0 1.607.237 2.27.557a3.012 3.012 0 0 1-2.955 2.634zm.3-9.122c-1.799 0-3.662.792-4.433 2.548l2.206.92c.47-.92 1.35-1.22 2.27-1.22 1.284 0 2.591.772 2.612 2.141v.172c-.45-.257-1.413-.643-2.59-.643-2.378 0-4.797 1.306-4.797 3.748 0 2.227 1.948 3.661 4.133 3.661 1.67 0 2.59-.75 3.168-1.627h.086v1.285h2.398v-6.38c0-2.956-2.205-4.605-5.053-4.605zm-15.353 2.39h-3.533v-5.705h3.533c1.857 0 2.911 1.538 2.911 2.852 0 1.29-1.054 2.854-2.911 2.854zm-.065-8.021h-5.952v16.644h2.484v-6.306h3.468c2.755 0 5.46-1.993 5.46-5.17 0-3.175-2.705-5.168-5.46-5.168zM107.44 26.9c-1.716 0-3.153-1.437-3.153-3.41 0-1.995 1.437-3.453 3.153-3.453 1.695 0 3.024 1.458 3.024 3.452 0 1.974-1.33 3.41-3.024 3.41zm2.853-7.829h-.086c-.558-.664-1.63-1.266-2.982-1.266-2.83 0-5.426 2.489-5.426 5.684 0 3.176 2.596 5.642 5.426 5.642 1.352 0 2.424-.6 2.982-1.287h.086v.815c0 2.167-1.158 3.325-3.025 3.325-1.523 0-2.467-1.094-2.852-2.017l-2.167.9c.623 1.503 2.274 3.348 5.02 3.348 2.917 0 5.383-1.716 5.383-5.899V18.15h-2.36v.922zm4.075 9.717h2.488V12.145h-2.488v16.644zm6.156-5.491c-.064-2.188 1.694-3.304 2.96-3.304.987 0 1.823.493 2.102 1.202l-5.062 2.102zm7.722-1.887c-.472-1.266-1.91-3.605-4.848-3.605-2.917 0-5.34 2.296-5.34 5.663 0 3.175 2.402 5.663 5.619 5.663 2.595 0 4.097-1.588 4.718-2.51l-1.93-1.287c-.643.944-1.522 1.566-2.788 1.566-1.265 0-2.166-.58-2.746-1.716l7.572-3.13-.257-.644zm-60.323-1.867v2.402h5.748c-.171 1.352-.62 2.338-1.308 3.025-.836.836-2.145 1.758-4.44 1.758-3.539 0-6.305-2.852-6.305-6.39 0-3.54 2.766-6.393 6.305-6.393 1.91 0 3.303.75 4.333 1.716l1.695-1.695c-1.438-1.372-3.347-2.424-6.028-2.424-4.848 0-8.923 3.948-8.923 8.795 0 4.847 4.075 8.794 8.923 8.794 2.617 0 4.59-.858 6.135-2.466 1.586-1.588 2.08-3.818 2.08-5.62a7.83 7.83 0 0 0-.128-1.502h-8.087zm14.75 7.357c-1.715 0-3.196-1.415-3.196-3.432 0-2.037 1.48-3.431 3.196-3.431 1.716 0 3.196 1.394 3.196 3.431 0 2.017-1.48 3.432-3.196 3.432zm0-9.095c-3.132 0-5.684 2.382-5.684 5.663 0 3.26 2.552 5.663 5.684 5.663s5.684-2.403 5.684-5.663c0-3.281-2.552-5.663-5.684-5.663zm12.4 9.095c-1.715 0-3.196-1.415-3.196-3.432 0-2.037 1.48-3.431 3.196-3.431 1.716 0 3.196 1.394 3.196 3.431 0 2.017-1.48 3.432-3.196 3.432zm0-9.095c-3.132 0-5.684 2.382-5.684 5.663 0 3.26 2.552 5.663 5.684 5.663 3.131 0 5.684-2.403 5.684-5.663 0-3.281-2.553-5.663-5.684-5.663zM60.41 44.052h1.07v-2.879h-1.07z" fill="#FFF"/><path stroke="#FFF" stroke-width=".2" d="M60.41 44.052h1.07v-2.88h-1.07z"/><path d="M64.558 49.172h1.618c1.053 0 1.887-.3 2.504-.904.616-.603.923-1.448.923-2.536 0-1.077-.307-1.92-.923-2.528-.617-.606-1.45-.912-2.504-.912h-1.618v6.88zm-1.171 1.121v-9.122h2.79c1.4 0 2.52.424 3.363 1.268.84.846 1.26 1.944 1.26 3.293 0 1.352-.42 2.449-1.26 3.294-.842.847-1.963 1.267-3.364 1.267h-2.79z" fill="#FFF"/><path d="M64.558 49.172h1.618c1.053 0 1.887-.3 2.504-.904.616-.603.923-1.448.923-2.536 0-1.077-.307-1.92-.923-2.528-.617-.606-1.45-.912-2.504-.912h-1.618v6.88zm-1.171 1.121v-9.122h2.79c1.4 0 2.52.424 3.363 1.268.84.846 1.26 1.944 1.26 3.293 0 1.352-.42 2.449-1.26 3.294-.842.847-1.963 1.267-3.364 1.267h-2.79z" stroke="#FFF" stroke-width=".2"/><path fill="#FFF" d="M77.756 42.293H73.6v2.892h3.747v1.097H73.6v2.89h4.155v1.122H72.43v-9.122h5.326z"/><path stroke="#FFF" stroke-width=".2" d="M77.756 42.293H73.6v2.892h3.747v1.097H73.6v2.89h4.155v1.122H72.43v-9.122h5.326z"/><path fill="#FFF" d="M79.427 50.294v-9.122h1.428l4.433 7.096h.05l-.05-1.757v-5.34h1.17v9.123h-1.222l-4.638-7.44h-.05l.05 1.758v5.682z"/><path stroke="#FFF" stroke-width=".2" d="M79.427 50.294v-9.122h1.428l4.433 7.096h.05l-.05-1.757v-5.34h1.17v9.123h-1.222l-4.638-7.44h-.05l.05 1.758v5.682z"/><path d="M92.918 46.728h3.034l-1.49-4.116h-.052l-1.492 4.116zm-2.587 3.566l3.442-9.122h1.325l3.44 9.122h-1.3l-.88-2.47h-3.833l-.893 2.47h-1.3z" fill="#FFF"/><path d="M92.918 46.728h3.034l-1.49-4.116h-.052l-1.492 4.116zm-2.587 3.566l3.442-9.122h1.325l3.44 9.122h-1.3l-.88-2.47h-3.833l-.893 2.47h-1.3z" stroke="#FFF" stroke-width=".2"/><path fill="#FFF" d="M99.728 50.294v-9.122h1.17v8h3.951v1.122z"/><path stroke="#FFF" stroke-width=".2" d="M99.728 50.294v-9.122h1.17v8h3.951v1.122z"/><path fill="#FFF" d="M106.126 50.294h1.17v-9.122h-1.17z"/><path stroke="#FFF" stroke-width=".2" d="M106.126 50.294h1.17v-9.122h-1.17z"/><path fill="#FFF" d="M109.391 50.294v-9.122h1.428l4.432 7.096h.05l-.05-1.757v-5.34h1.171v9.123H115.2l-4.638-7.44h-.05l.05 1.758v5.682z"/><path stroke="#FFF" stroke-width=".2" d="M109.391 50.294v-9.122h1.428l4.432 7.096h.05l-.05-1.757v-5.34h1.171v9.123H115.2l-4.638-7.44h-.05l.05 1.758v5.682z"/><path d="M10.521 10.607c-.446.472-.71 1.205-.71 2.155v33.92c0 .95.264 1.682.71 2.154l.113.11 19.002-19v-.449L10.634 10.495l-.113.112z" fill="#00D3FF"/><path d="M35.969 36.282l-6.334-6.336v-.449l6.335-6.335.144.082 7.503 4.263c2.143 1.219 2.143 3.21 0 4.43L36.114 36.2l-.145.08z" fill="#FFCF00"/><path d="M36.113 36.2l-6.477-6.479-19.115 19.115c.707.748 1.873.84 3.188.093L36.113 36.2" fill="#F3314A"/><path d="M36.113 23.243L13.71 10.513c-1.315-.746-2.481-.654-3.188.094l19.115 19.115 6.477-6.479z" fill="#00F076"/></g></svg>