<svg width="206" height="59" xmlns="http://www.w3.org/2000/svg" xmlns:xlink="http://www.w3.org/1999/xlink"><defs><path d="M198.493 0H6.633A6.632 6.632 0 0 0 0 6.629V52.37C0 56.032 2.97 59 6.634 59h191.859a6.632 6.632 0 0 0 6.636-6.629V6.63a6.632 6.632 0 0 0-6.636-6.629z" id="a"/><mask id="b" x="0" y="0" width="205.129" height="59" fill="#fff"><use xlink:href="#a"/></mask><path id="c" d="M0 .296v9.965h8.915V.296H0z"/><path id="e" d="M0 11.255h61.67V1.283H0z"/></defs><g fill="none" fill-rule="evenodd"><use stroke="#3F3F3F" mask="url(#b)" stroke-width="2" fill="#000" xlink:href="#a"/><path d="M163.911 44.236h2.861V25.062h-2.861v19.174zm25.777-12.267l-3.28 8.313h-.099l-3.404-8.313h-3.083l5.106 11.618-2.912 6.463h2.985l7.869-18.081h-3.182zm-16.23 10.089c-.938 0-2.245-.47-2.245-1.629 0-1.48 1.627-2.047 3.033-2.047 1.258 0 1.851.272 2.615.641-.221 1.777-1.752 3.035-3.404 3.035zm.344-10.508c-2.071 0-4.218.912-5.106 2.934l2.541 1.06c.543-1.06 1.555-1.405 2.615-1.405 1.48 0 2.985.889 3.01 2.467v.197c-.519-.296-1.628-.74-2.985-.74-2.739 0-5.526 1.505-5.526 4.317 0 2.566 2.245 4.218 4.761 4.218 1.924 0 2.985-.864 3.65-1.874h.1v1.48h2.762v-7.35c0-3.405-2.54-5.304-5.822-5.304zm-17.685 2.753h-4.07V27.73h4.07c2.139 0 3.354 1.773 3.354 3.286 0 1.487-1.215 3.287-3.354 3.287zm-.075-9.24h-6.857v19.173h2.862V36.97h3.995c3.173 0 6.29-2.296 6.29-5.955 0-3.658-3.117-5.954-6.29-5.954zM118.65 42.06c-1.977 0-3.632-1.655-3.632-3.929 0-2.297 1.656-3.977 3.632-3.977 1.952 0 3.484 1.68 3.484 3.977 0 2.274-1.532 3.929-3.484 3.929zm3.286-9.018h-.099c-.642-.766-1.877-1.459-3.435-1.459-3.26 0-6.25 2.867-6.25 6.548 0 3.658 2.99 6.499 6.25 6.499 1.558 0 2.793-.691 3.435-1.483h.099v.94c0 2.495-1.334 3.829-3.484 3.829-1.754 0-2.842-1.26-3.286-2.323l-2.496 1.038c.717 1.73 2.62 3.855 5.782 3.855 3.36 0 6.202-1.976 6.202-6.795v-11.71h-2.718v1.062zm4.694 11.193h2.867V25.062h-2.867v19.174zm7.092-6.326c-.073-2.52 1.952-3.805 3.41-3.805 1.137 0 2.1.568 2.422 1.384l-5.832 2.421zm8.896-2.174c-.544-1.458-2.2-4.152-5.584-4.152-3.36 0-6.153 2.645-6.153 6.524 0 3.656 2.768 6.523 6.473 6.523 2.99 0 4.72-1.83 5.436-2.891l-2.223-1.483c-.741 1.088-1.754 1.804-3.213 1.804-1.457 0-2.494-.667-3.163-1.977l8.723-3.607-.296-.741zm-69.49-2.15v2.767h6.622c-.198 1.557-.716 2.693-1.507 3.485-.964.963-2.472 2.025-5.115 2.025-4.076 0-7.264-3.286-7.264-7.362 0-4.078 3.188-7.364 7.264-7.364 2.2 0 3.805.865 4.992 1.977l1.952-1.952c-1.656-1.582-3.856-2.792-6.944-2.792-5.585 0-10.28 4.546-10.28 10.13 0 5.584 4.695 10.13 10.28 10.13 3.015 0 5.288-.988 7.067-2.84 1.828-1.829 2.397-4.398 2.397-6.475 0-.642-.05-1.235-.149-1.729h-9.315zM90.12 42.06c-1.977 0-3.683-1.63-3.683-3.953 0-2.348 1.706-3.953 3.683-3.953 1.976 0 3.68 1.605 3.68 3.953 0 2.322-1.704 3.953-3.68 3.953zm0-10.477c-3.608 0-6.548 2.744-6.548 6.524 0 3.755 2.94 6.523 6.548 6.523s6.547-2.768 6.547-6.523c0-3.78-2.94-6.524-6.547-6.524zm14.284 10.477c-1.976 0-3.682-1.63-3.682-3.953 0-2.348 1.706-3.953 3.682-3.953 1.977 0 3.681 1.605 3.681 3.953 0 2.322-1.704 3.953-3.68 3.953zm0-10.477c-3.608 0-6.548 2.744-6.548 6.524 0 3.755 2.94 6.523 6.548 6.523 3.607 0 6.548-2.768 6.548-6.523 0-3.78-2.941-6.524-6.548-6.524z" fill="#FFF"/><path d="M10.521 10.607c-.446.472-.71 1.205-.71 2.155v33.92c0 .95.264 1.682.71 2.154l.113.11 19.002-19v-.449L10.634 10.495l-.113.112z" fill="#00D3FF"/><path d="M35.969 36.282l-6.334-6.336v-.449l6.335-6.335.144.082 7.503 4.263c2.143 1.219 2.143 3.21 0 4.43L36.114 36.2l-.145.08z" fill="#FFCF00"/><path d="M36.113 36.2l-6.477-6.479-19.115 19.115c.707.748 1.873.84 3.188.093L36.113 36.2" fill="#F3314A"/><path d="M36.113 23.243L13.71 10.513c-1.315-.746-2.481-.654-3.188.094l19.115 19.115 6.477-6.479z" fill="#00F076"/><g transform="translate(62.848 6.413)"><g transform="translate(0 .995)"><mask id="d" fill="#fff"><use xlink:href="#c"/></mask><path d="M4.832 6.317V5.185l4.083-.006v3.576a7.21 7.21 0 0 1-1.94 1.127 5.717 5.717 0 0 1-2.052.379c-.946 0-1.805-.203-2.579-.607a4.035 4.035 0 0 1-1.753-1.76C.198 7.128-.001 6.27-.001 5.325c0-.939.198-1.815.59-2.627.392-.813.956-1.417 1.692-1.81C3.017.491 3.865.295 4.825.295c.697 0 1.327.113 1.89.337.563.226 1.005.54 1.325.944.32.403.562.929.729 1.578l-1.15.315c-.143-.49-.324-.876-.538-1.156-.216-.281-.522-.506-.921-.674a3.365 3.365 0 0 0-1.328-.254c-.583 0-1.087.09-1.512.266a2.83 2.83 0 0 0-1.028.7c-.262.29-.465.608-.608.953a5.057 5.057 0 0 0-.369 1.94c0 .859.148 1.578.444 2.157A2.841 2.841 0 0 0 3.05 8.69c.567.28 1.168.42 1.803.42.551 0 1.091-.106 1.617-.319.526-.212.925-.44 1.197-.681V6.317H4.832z" fill="#FFF" mask="url(#d)"/></g><path fill="#FFF" d="M10.404 11.091V1.454h6.97V2.59h-5.695v2.952h5.331v1.131h-5.33v3.28h5.916v1.137zm10.988 0v-8.5h-3.175V1.454h7.639V2.59h-3.189v8.5z"/><mask id="f" fill="#fff"><use xlink:href="#e"/></mask><path fill="#FFF" mask="url(#f)" d="M30.043 11.091h1.276V1.454h-1.276zm5.558 0v-8.5h-3.176V1.454h7.64V2.59h-3.189v8.5zm9.362-4.674c0 1.162.313 2.076.936 2.746.626.667 1.408 1.002 2.351 1.002.96 0 1.75-.338 2.37-1.012.621-.676.93-1.634.93-2.873 0-.785-.133-1.47-.397-2.055a3.066 3.066 0 0 0-1.164-1.361 3.157 3.157 0 0 0-1.72-.482c-.903 0-1.679.309-2.329.928-.651.622-.977 1.656-.977 3.107m-1.314-.02c0-1.599.429-2.85 1.287-3.756.86-.904 1.969-1.359 3.327-1.359.89 0 1.693.213 2.406.638a4.169 4.169 0 0 1 1.634 1.779c.375.76.562 1.622.562 2.586 0 .978-.198 1.853-.591 2.624-.394.77-.953 1.356-1.677 1.752a4.793 4.793 0 0 1-2.34.594c-.909 0-1.718-.218-2.432-.657A4.22 4.22 0 0 1 44.2 8.804a5.453 5.453 0 0 1-.55-2.406m10.427 4.693V1.454h1.309l5.06 7.567V1.454h1.225v9.637h-1.31L55.3 3.52v7.572z"/></g></g></svg>