<svg width="206" height="59" xmlns="http://www.w3.org/2000/svg" xmlns:xlink="http://www.w3.org/1999/xlink"><defs><path d="M198.493 0H6.633A6.63 6.63 0 0 0 0 6.629V52.37C0 56.031 2.97 59 6.634 59h191.859a6.633 6.633 0 0 0 6.636-6.629V6.63A6.631 6.631 0 0 0 198.493 0z" id="a"/><mask id="b" x="0" y="0" width="205.129" height="59" fill="#fff"><use xlink:href="#a"/></mask><path id="c" d="M0 12.244h77.23V0H0z"/></defs><g fill="none" fill-rule="evenodd"><use stroke="#3F3F3F" mask="url(#b)" stroke-width="2" fill="#000" xlink:href="#a"/><g transform="translate(59 10.26)"><path d="M9.31 11.28c-1.123.643-2.4.964-3.83.964-1.08 0-2.039-.239-2.878-.713A4.802 4.802 0 0 1 .675 9.523C.225 8.66 0 7.682 0 6.591c0-1.153.246-2.18.736-3.08a5.28 5.28 0 0 1 2.095-2.114C3.735.887 4.765.634 5.918.634c.581 0 1.154.055 1.723.165.569.11 1.033.248 1.394.414v1.69c-.857-.567-1.94-.852-3.25-.852-.782 0-1.49.19-2.12.568a3.858 3.858 0 0 0-1.47 1.58c-.345.676-.519 1.437-.519 2.282 0 1.347.35 2.407 1.052 3.183.703.775 1.673 1.162 2.91 1.162.781 0 1.475-.156 2.082-.469V7.47H5.33V6.067h3.98v5.214zm7.599-4.04c-.005-.694-.17-1.225-.49-1.593-.321-.368-.774-.551-1.357-.551a1.91 1.91 0 0 0-1.39.582c-.394.389-.646.91-.756 1.562h3.993zm1.558 1.23h-5.559c.031.808.266 1.43.704 1.863.438.433 1.019.649 1.738.649.95 0 1.788-.274 2.513-.821v1.36c-.313.22-.715.396-1.2.527a5.89 5.89 0 0 1-1.515.194c-1.216 0-2.159-.362-2.827-1.087-.668-.726-1.002-1.746-1.002-3.06 0-.81.163-1.54.489-2.19a3.739 3.739 0 0 1 1.362-1.522 3.572 3.572 0 0 1 1.938-.548c1.037 0 1.858.339 2.459 1.017.599.679.9 1.621.9 2.827v.79zm6.017 3.5c-.14.083-.344.15-.607.2a3.872 3.872 0 0 1-.693.072c-1.482 0-2.222-.818-2.222-2.457V5.307h-1.355V4.031h1.355V2.13l1.541-.485v2.387h1.98v1.276h-1.98v4.204c0 .533.086.906.258 1.12.173.213.475.321.908.321.3 0 .57-.083.815-.251v1.268z" fill="#FFF"/><mask id="d" fill="#fff"><use xlink:href="#c"/></mask><path d="M30.407 12.048h1.543V4.03h-1.543v8.017zM32.176 1.18a.9.9 0 0 1-.281.662.958.958 0 0 1-.697.278.95.95 0 0 1-.696-.27.894.894 0 0 1-.275-.67.88.88 0 0 1 .289-.68.976.976 0 0 1 .682-.266c.26 0 .488.09.685.273a.889.889 0 0 1 .293.673zm6.51 10.79c-.138.083-.344.15-.607.2a3.872 3.872 0 0 1-.692.072c-1.483 0-2.222-.818-2.222-2.457V5.307H33.81V4.031h1.355V2.13l1.54-.485v2.387h1.981v1.276h-1.98v4.204c0 .533.086.906.258 1.12.173.213.474.321.908.321.298 0 .57-.083.814-.251v1.268zM48.828 1.488a1.762 1.762 0 0 0-.853-.204c-.869 0-1.302.532-1.302 1.597v1.15h1.834V5.31h-1.834v6.739h-1.557v-6.74h-1.353V4.032h1.353V2.795c0-.85.24-1.53.724-2.036C46.323.254 46.986 0 47.834 0c.416 0 .747.047.992.141v1.347h.002zm5.712 4.077c-.093-.073-.247-.136-.461-.187-.215-.053-.4-.08-.558-.08-.548 0-.99.248-1.33.74-.34.494-.508 1.132-.508 1.914v4.096H50.14V4.03h1.543v1.605h.032c.177-.548.447-.976.814-1.284a1.895 1.895 0 0 1 1.258-.462c.324 0 .574.036.752.11v1.565zm7.248 2.475c0-.956-.209-1.68-.626-2.173-.418-.493-1.006-.74-1.77-.74-.773 0-1.377.259-1.816.776-.44.515-.659 1.241-.659 2.175 0 .903.222 1.61.663 2.119.44.508 1.047.762 1.821.762.78 0 1.375-.248 1.78-.743.403-.496.607-1.221.607-2.177m1.596-.055c0 1.3-.372 2.335-1.115 3.104-.744.771-1.735 1.154-2.97 1.154-1.217 0-2.184-.371-2.9-1.118-.72-.746-1.078-1.743-1.078-2.991 0-1.33.371-2.38 1.115-3.146.744-.769 1.76-1.15 3.049-1.15 1.207 0 2.158.366 2.855 1.102.696.737 1.044 1.751 1.044 3.045m13.846 4.064h-1.55V7.483c0-.824-.128-1.423-.383-1.796s-.693-.56-1.307-.56c-.513 0-.945.237-1.3.709-.355.472-.533 1.031-.533 1.679v4.533h-1.542V7.326c0-1.466-.567-2.2-1.698-2.2-.537 0-.975.225-1.312.674-.337.449-.504 1.02-.504 1.715v4.533h-1.544V4.03H67.1v1.253h.03c.573-.965 1.413-1.448 2.513-1.448.516 0 .982.14 1.395.422.41.281.706.681.882 1.198.313-.553.689-.962 1.127-1.225.44-.264.955-.395 1.55-.395 1.753 0 2.63 1.088 2.63 3.265v4.947h.002z" fill="#FFF" mask="url(#d)"/></g><path d="M83.865 47.802h3.172V34.329h-3.172v13.473zm-.327-17.366c0-.524.19-.963.57-1.317.38-.354.831-.53 1.356-.53.56 0 1.022.181 1.39.543.366.363.55.798.55 1.304 0 .516-.188.948-.564 1.297-.375.35-.835.525-1.376.525-.541 0-.998-.177-1.37-.53a1.722 1.722 0 0 1-.556-1.292zm13.12 15.059c.47 0 .99-.11 1.56-.328a6.608 6.608 0 0 0 1.572-.865v2.948a6.32 6.32 0 0 1-1.724.657 9.45 9.45 0 0 1-2.116.223c-1.983 0-3.595-.627-4.836-1.88-1.241-1.256-1.86-2.856-1.86-4.803 0-2.168.633-3.952 1.899-5.357 1.266-1.401 3.063-2.102 5.386-2.102.595 0 1.195.077 1.802.229.608.153 1.091.33 1.448.53v3.042a6.433 6.433 0 0 0-1.5-.832 4.331 4.331 0 0 0-1.567-.295c-1.25 0-2.259.407-3.027 1.219-.77.813-1.153 1.91-1.153 3.289 0 1.363.37 2.425 1.107 3.184.737.76 1.74 1.14 3.009 1.14m12.16-11.388c.254 0 .481.018.681.053.202.034.372.078.512.13V37.5c-.167-.122-.41-.237-.727-.346-.32-.11-.706-.164-1.16-.164-.777 0-1.435.327-1.972.982-.538.657-.807 1.665-.807 3.028v6.802h-3.172V34.329h3.172v2.123h.052c.29-.734.726-1.31 1.311-1.724.585-.414 1.29-.622 2.11-.622m4.669 7.051c0 1.407.318 2.483.956 3.224.637.743 1.55 1.114 2.74 1.114 1.152 0 2.03-.371 2.634-1.114.603-.741.904-1.844.904-3.301 0-1.45-.312-2.545-.936-3.285-.624-.739-1.501-1.106-2.628-1.106-1.162 0-2.063.386-2.705 1.159-.644.774-.965 1.876-.965 3.309m-3.303.105c0-2.228.629-3.993 1.887-5.295s3.006-1.952 5.243-1.952c2.106 0 3.75.626 4.936 1.88 1.184 1.255 1.775 2.948 1.775 5.08 0 2.184-.629 3.923-1.888 5.215-1.257 1.294-2.97 1.94-5.138 1.94-2.088 0-3.745-.614-4.973-1.843-1.229-1.226-1.842-2.901-1.842-5.025m18.557-3.394c0 .454.142.81.432 1.069.289.257.926.582 1.914.976 1.266.508 2.156 1.076 2.665 1.71.512.633.768 1.4.768 2.3 0 1.266-.487 2.285-1.462 3.054-.975.77-2.29 1.153-3.952 1.153a9.462 9.462 0 0 1-1.853-.204c-.677-.133-1.253-.307-1.724-.517V44.29a7.84 7.84 0 0 0 1.861.957c.663.236 1.266.354 1.809.354.717 0 1.244-.101 1.585-.301.341-.202.51-.538.51-1.01 0-.437-.176-.807-.53-1.108-.353-.3-1.025-.649-2.012-1.042-1.17-.488-2.002-1.041-2.489-1.65-.49-.612-.734-1.39-.734-2.333 0-1.214.484-2.213 1.45-2.995.964-.781 2.216-1.174 3.754-1.174.472 0 1 .053 1.586.158.585.105 1.074.241 1.468.407v3.014c-.42-.28-.91-.518-1.468-.721a4.902 4.902 0 0 0-1.666-.302c-.603 0-1.072.118-1.41.354a1.123 1.123 0 0 0-.502.97m10.471 3.289c0 1.407.318 2.483.957 3.224.637.743 1.55 1.114 2.738 1.114 1.155 0 2.032-.371 2.636-1.114.603-.741.904-1.844.904-3.301 0-1.45-.311-2.545-.936-3.285-.625-.74-1.5-1.106-2.628-1.106-1.162 0-2.064.386-2.706 1.159-.644.774-.965 1.876-.965 3.309m-3.303.105c0-2.228.629-3.993 1.888-5.295 1.257-1.302 3.007-1.952 5.244-1.952 2.105 0 3.75.626 4.934 1.88 1.184 1.255 1.775 2.948 1.775 5.08 0 2.184-.627 3.923-1.887 5.215-1.258 1.294-2.97 1.94-5.138 1.94-2.088 0-3.745-.614-4.972-1.843-1.228-1.226-1.844-2.901-1.844-5.025m24.337-4.339v6.92c0 1.433.334 2.507 1.001 3.219.669.712 1.672 1.067 3.01 1.067.453 0 .914-.047 1.382-.144.466-.095.802-.2 1.002-.313v-2.624a2.96 2.96 0 0 1-.675.314 2.101 2.101 0 0 1-.663.134c-.646 0-1.12-.17-1.42-.512-.301-.34-.454-.926-.454-1.756v-6.304h3.212v-2.593h-3.212v-3.998l-3.183.97v3.028h-4.725v-1.627c0-.813.18-1.425.537-1.841.36-.415.87-.623 1.534-.623.34 0 .641.044.904.131.262.086.445.162.55.223v-2.74a4.102 4.102 0 0 0-.786-.176 7.78 7.78 0 0 0-1.022-.06c-1.442 0-2.624.454-3.545 1.358-.922.904-1.383 2.064-1.383 3.48v1.873h-2.255v2.594h2.255V47.8h3.21V36.923h4.726zm-79.432-7.919v18.802h-3.266V33.069h-.051L71.66 47.806h-2.162l-5.98-14.737h-.038v14.737h-3.017V29.004h4.681l5.403 13.938h.078l5.704-13.938z" fill="#FFF"/><path fill="#F25022" d="M11.853 28.176h17.775V10.401H11.853z"/><path fill="#7FBA00" d="M31.478 28.176h17.775V10.401H31.478z"/><path fill="#00A4EF" d="M11.853 47.802h17.775V30.026H11.853z"/><path fill="#FFB900" d="M31.478 47.802h17.775V30.026H31.478z"/></g></svg>