<svg width="206" height="59" xmlns="http://www.w3.org/2000/svg" xmlns:xlink="http://www.w3.org/1999/xlink"><defs><path d="M198.493 0H6.633A6.63 6.63 0 0 0 0 6.629V52.37C0 56.031 2.97 59 6.634 59h191.859a6.633 6.633 0 0 0 6.636-6.629V6.63A6.631 6.631 0 0 0 198.493 0z" id="a"/><mask id="b" x="0" y="0" width="205.129" height="59" fill="#fff"><use xlink:href="#a"/></mask><path id="c" d="M0 12.826h76.136V.168H0z"/></defs><g fill="none" fill-rule="evenodd"><use stroke="#3F3F3F" mask="url(#b)" stroke-width="2" fill="#000" xlink:href="#a"/><path d="M83.865 29.845h3.172V16.373h-3.172v13.472zm-.327-17.365c0-.525.19-.963.57-1.317a1.92 1.92 0 0 1 1.356-.531c.56 0 1.022.182 1.39.543.366.363.55.798.55 1.305a1.7 1.7 0 0 1-.564 1.297c-.375.35-.835.524-1.376.524-.541 0-.998-.177-1.37-.53a1.722 1.722 0 0 1-.556-1.291zm13.12 15.058c.47 0 .99-.109 1.56-.327a6.608 6.608 0 0 0 1.572-.866v2.949a6.32 6.32 0 0 1-1.724.657 9.45 9.45 0 0 1-2.116.223c-1.983 0-3.595-.627-4.836-1.88-1.241-1.256-1.86-2.857-1.86-4.804 0-2.168.633-3.952 1.899-5.356 1.266-1.402 3.063-2.102 5.386-2.102.595 0 1.195.077 1.802.228.608.154 1.091.33 1.448.531v3.041a6.433 6.433 0 0 0-1.5-.831 4.331 4.331 0 0 0-1.567-.295c-1.25 0-2.259.407-3.027 1.218-.77.814-1.153 1.91-1.153 3.289 0 1.363.37 2.425 1.107 3.185.737.76 1.74 1.14 3.009 1.14m12.16-11.388c.254 0 .481.018.681.052.202.035.372.079.512.131v3.21c-.167-.121-.41-.237-.727-.346-.32-.11-.706-.164-1.16-.164-.777 0-1.435.327-1.972.982-.538.657-.807 1.665-.807 3.029v6.801h-3.172V16.373h3.172v2.123h.052c.29-.734.726-1.31 1.311-1.724.585-.415 1.29-.622 2.11-.622m4.669 7.05c0 1.407.318 2.483.956 3.225.637.742 1.55 1.113 2.74 1.113 1.152 0 2.03-.37 2.634-1.113.603-.742.904-1.845.904-3.302 0-1.45-.312-2.544-.936-3.285-.624-.738-1.501-1.105-2.628-1.105-1.162 0-2.063.386-2.705 1.158-.644.775-.965 1.877-.965 3.31m-3.303.104c0-2.228.629-3.992 1.887-5.294 1.258-1.302 3.006-1.952 5.243-1.952 2.106 0 3.75.626 4.936 1.88 1.184 1.254 1.775 2.947 1.775 5.08 0 2.183-.629 3.923-1.888 5.214-1.257 1.294-2.97 1.94-5.138 1.94-2.088 0-3.745-.614-4.973-1.842-1.229-1.227-1.842-2.902-1.842-5.026m18.557-3.393c0 .454.142.81.432 1.068.289.258.926.582 1.914.976 1.266.508 2.156 1.076 2.665 1.71.512.633.768 1.4.768 2.3 0 1.267-.487 2.285-1.462 3.055s-2.29 1.153-3.952 1.153a9.462 9.462 0 0 1-1.853-.204c-.677-.134-1.253-.308-1.724-.517v-3.12a7.84 7.84 0 0 0 1.861.957c.663.236 1.266.354 1.809.354.717 0 1.244-.1 1.585-.301.341-.201.51-.537.51-1.01 0-.437-.176-.806-.53-1.108-.353-.3-1.025-.649-2.012-1.041-1.17-.489-2.002-1.042-2.489-1.65-.49-.613-.734-1.391-.734-2.334 0-1.213.484-2.212 1.45-2.995.964-.78 2.216-1.173 3.754-1.173.472 0 1 .052 1.586.157.585.106 1.074.242 1.468.407v3.014c-.42-.28-.91-.518-1.468-.72a4.902 4.902 0 0 0-1.666-.302c-.603 0-1.072.118-1.41.354a1.123 1.123 0 0 0-.502.97m10.471 3.288c0 1.407.318 2.483.957 3.225.637.742 1.55 1.113 2.738 1.113 1.155 0 2.032-.37 2.636-1.113.603-.742.904-1.845.904-3.302 0-1.45-.311-2.544-.936-3.285-.625-.74-1.5-1.105-2.628-1.105-1.162 0-2.064.386-2.706 1.158-.644.775-.965 1.877-.965 3.31m-3.303.104c0-2.228.629-3.992 1.888-5.294 1.257-1.302 3.007-1.952 5.244-1.952 2.105 0 3.75.626 4.934 1.88 1.184 1.254 1.775 2.947 1.775 5.08 0 2.183-.627 3.923-1.887 5.214-1.258 1.294-2.97 1.94-5.138 1.94-2.088 0-3.745-.614-4.972-1.842-1.228-1.227-1.844-2.902-1.844-5.026m24.337-4.339v6.921c0 1.433.334 2.506 1.001 3.218.669.712 1.672 1.067 3.01 1.067.453 0 .914-.047 1.382-.143.466-.095.802-.2 1.002-.313v-2.624a2.96 2.96 0 0 1-.675.314 2.101 2.101 0 0 1-.663.133c-.646 0-1.12-.17-1.42-.511-.301-.34-.454-.927-.454-1.756v-6.304h3.212v-2.594h-3.212v-3.998l-3.183.97v3.028h-4.725v-1.626c0-.813.18-1.425.537-1.842.36-.414.87-.622 1.534-.622.34 0 .641.044.904.13.262.087.445.162.55.224v-2.74a4.102 4.102 0 0 0-.786-.177 7.78 7.78 0 0 0-1.022-.059c-1.442 0-2.624.453-3.545 1.357-.922.905-1.383 2.064-1.383 3.48v1.874h-2.255v2.593h2.255v10.878h3.21V18.966h4.726zm-79.432-7.919V29.85h-3.266V15.112h-.051L71.66 29.85h-2.162l-5.98-14.737h-.038V29.85h-3.017V11.047h4.681l5.403 13.939h.078l5.704-13.939z" fill="#FFF"/><path fill="#F25022" d="M11.853 28.176h17.775V10.401H11.853z"/><path fill="#7FBA00" d="M31.478 28.176h17.775V10.401H31.478z"/><path fill="#00A4EF" d="M11.853 47.802h17.775V30.026H11.853z"/><path fill="#FFB900" d="M31.478 47.802h17.775V30.026H31.478z"/><path fill="#FFF" d="M59 38.943h1.224v-3.664H59z"/><g transform="translate(59 34.462)"><path d="M8.073 12.539c-.148.087-.36.156-.636.208a3.95 3.95 0 0 1-.728.08c-1.554 0-2.331-.862-2.331-2.58V5.55H2.956V4.21h1.422V2.214l1.618-.51V4.21h2.078v1.34H5.996v4.41c0 .559.09.95.27 1.174.182.226.5.338.954.338.311 0 .596-.088.854-.263v1.33h-.001zm6.317-4.092l-1.923.263c-.586.077-1.017.228-1.294.456-.276.227-.414.573-.414 1.038 0 .417.134.737.406.961.27.226.638.337 1.097.337.608 0 1.114-.214 1.52-.64.405-.427.608-.967.608-1.618v-.797zm1.6 4.173h-1.61v-1.232h-.031c-.581.957-1.427 1.437-2.539 1.437-.804 0-1.45-.22-1.938-.662-.487-.441-.73-1.042-.73-1.802 0-1.593.948-2.52 2.85-2.776l2.398-.338c0-1.28-.555-1.922-1.659-1.922-.986 0-1.908.326-2.768.978V4.776a5.816 5.816 0 0 1 2.925-.773c2.069 0 3.104 1.075 3.104 3.22v5.397h-.002zm9.576 0h-1.618V7.864c0-.848-.147-1.478-.44-1.89-.293-.41-.753-.615-1.383-.615-.603 0-1.113.233-1.531.699-.419.465-.629 1.057-.629 1.774v4.788h-1.617V4.208h1.617v1.373h.032c.63-1.052 1.544-1.578 2.744-1.578.914 0 1.613.294 2.098.876.485.582.727 1.444.727 2.583v5.158zM37.18 7.578c-.006-.728-.177-1.287-.511-1.673-.34-.386-.814-.578-1.425-.578-.56 0-1.045.204-1.459.613-.413.406-.677.953-.792 1.638h4.187zm1.634 1.287h-5.832c.032.85.281 1.501.74 1.955.46.454 1.067.681 1.823.681.997 0 1.876-.287 2.637-.863v1.43c-.328.23-.748.413-1.26.55a6.154 6.154 0 0 1-1.589.206c-1.276 0-2.265-.381-2.965-1.142-.7-.762-1.05-1.833-1.05-3.212 0-.849.171-1.614.512-2.296a3.91 3.91 0 0 1 1.43-1.596 3.744 3.744 0 0 1 2.032-.576c1.09 0 1.95.356 2.58 1.068.628.713.944 1.7.944 2.966v.83h-.002zm7.614-1.222c0-.636-.216-1.175-.65-1.619a2.116 2.116 0 0 0-1.575-.667c-.757 0-1.354.281-1.791.84-.439.557-.657 1.342-.657 2.355 0 .893.206 1.604.619 2.132.413.527.98.793 1.695.793.674 0 1.235-.258 1.683-.774.451-.514.673-1.17.673-1.97v-1.09h.003zm1.61 4.977h-1.62v-1.372h-.031c-.618 1.052-1.561 1.577-2.826 1.577-1.049 0-1.894-.377-2.53-1.134-.634-.755-.952-1.779-.952-3.072 0-1.39.348-2.507 1.047-3.351.697-.843 1.632-1.265 2.806-1.265 1.114 0 1.934.436 2.455 1.307h.032V.168h1.619V12.62z" fill="#FFF"/><mask id="d" fill="#fff"><use xlink:href="#c"/></mask><path d="M50.698 12.62h1.618V4.208h-1.618v8.412zm1.857-11.4a.94.94 0 0 1-.295.694.998.998 0 0 1-.729.29c-.297 0-.54-.093-.73-.283a.942.942 0 0 1-.29-.701c0-.291.1-.529.303-.716a1.02 1.02 0 0 1 .717-.28c.274 0 .51.097.717.289a.926.926 0 0 1 .307.707zm9.635 11.4h-1.62V7.864c0-.848-.147-1.478-.441-1.89-.291-.41-.754-.615-1.383-.615-.601 0-1.112.233-1.53.699-.42.465-.628 1.057-.628 1.774v4.788H54.97V4.208h1.619v1.373h.032c.628-1.052 1.543-1.578 2.743-1.578.915 0 1.614.294 2.1.876.483.582.726 1.444.726 2.583v5.158zm4.072 0h-1.617V4.208h1.618v8.412zm.239-11.4a.94.94 0 0 1-.295.694.998.998 0 0 1-.729.29c-.297 0-.541-.093-.73-.283a.942.942 0 0 1-.29-.701c0-.291.1-.529.303-.716a1.02 1.02 0 0 1 .717-.28c.273 0 .51.097.717.289a.926.926 0 0 1 .307.707zm9.635 11.4h-1.619V7.864c0-.848-.147-1.478-.441-1.89-.291-.41-.754-.615-1.383-.615-.601 0-1.112.233-1.53.699-.42.465-.629 1.057-.629 1.774v4.788h-1.618V4.208h1.618v1.373h.033c.628-1.052 1.543-1.578 2.743-1.578.915 0 1.614.294 2.1.876.483.582.726 1.444.726 2.583v5.158z" fill="#FFF" mask="url(#d)"/></g></g></svg>