<svg width="205" height="59" xmlns="http://www.w3.org/2000/svg" xmlns:xlink="http://www.w3.org/1999/xlink"><defs><path d="M197.619 0H6.604A6.602 6.602 0 0 0 0 6.6v45.54c0 3.644 2.957 6.6 6.604 6.6H197.62a6.604 6.604 0 0 0 6.607-6.6V6.6c0-3.646-2.958-6.6-6.607-6.6z" id="a"/><mask id="b" x="0" y="0" width="204.226" height="58.74" fill="#fff"><use xlink:href="#a"/></mask></defs><g fill="none" fill-rule="evenodd"><use stroke="#3F3F3F" mask="url(#b)" stroke-width="2" fill="#000" xlink:href="#a"/><path d="M83.495 47.591h3.158V34.178h-3.158V47.59zm-.325-17.289c0-.522.189-.959.567-1.311.38-.353.829-.529 1.35-.529.558 0 1.019.182 1.384.542.365.361.548.794.548 1.298 0 .514-.187.944-.561 1.291-.374.349-.831.523-1.37.523-.539 0-.994-.177-1.364-.528a1.715 1.715 0 0 1-.554-1.286zm13.062 14.992c.47 0 .986-.108 1.553-.325a6.579 6.579 0 0 0 1.566-.862v2.935a6.293 6.293 0 0 1-1.716.654 9.408 9.408 0 0 1-2.107.222c-1.975 0-3.58-.624-4.815-1.872-1.236-1.25-1.852-2.843-1.852-4.782 0-2.158.63-3.934 1.89-5.332 1.261-1.396 3.05-2.093 5.363-2.093.592 0 1.19.076 1.794.227.605.153 1.086.33 1.441.529v3.027a6.405 6.405 0 0 0-1.494-.827 4.312 4.312 0 0 0-1.559-.294c-1.244 0-2.248.405-3.013 1.213-.767.81-1.148 1.902-1.148 3.274 0 1.358.367 2.415 1.102 3.171.734.756 1.732 1.135 2.995 1.135m12.108-11.338c.252 0 .478.018.677.052.2.035.37.078.51.13v3.197c-.166-.121-.408-.236-.724-.345-.318-.11-.703-.163-1.155-.163-.774 0-1.429.325-1.964.978-.535.654-.803 1.657-.803 3.015v6.772h-3.158V34.178h3.158v2.114h.053c.288-.73.722-1.304 1.305-1.717.582-.412 1.284-.619 2.1-.619m4.648 7.02c0 1.4.317 2.472.952 3.21.634.74 1.544 1.108 2.727 1.108 1.148 0 2.023-.369 2.623-1.108.6-.738.9-1.836.9-3.287 0-1.444-.31-2.534-.932-3.27-.62-.736-1.494-1.101-2.616-1.101-1.157 0-2.054.384-2.693 1.153-.641.771-.96 1.868-.96 3.295m-3.289.104c0-2.218.626-3.975 1.879-5.271 1.252-1.296 2.993-1.944 5.22-1.944 2.097 0 3.734.624 4.914 1.872 1.178 1.25 1.767 2.935 1.767 5.057 0 2.175-.626 3.906-1.88 5.192-1.251 1.289-2.956 1.932-5.115 1.932-2.08 0-3.729-.611-4.951-1.835-1.223-1.22-1.834-2.888-1.834-5.003m18.475-3.379c0 .452.142.807.43 1.064.288.257.923.58 1.906.972 1.26.506 2.146 1.071 2.653 1.702.51.63.765 1.395.765 2.291 0 1.26-.485 2.274-1.456 3.04-.97.767-2.28 1.148-3.934 1.148a9.425 9.425 0 0 1-1.845-.203c-.674-.132-1.248-.306-1.716-.514v-3.106c.573.4 1.192.718 1.853.953.66.235 1.26.352 1.8.352.714 0 1.239-.1 1.578-.3.34-.2.507-.535.507-1.005 0-.435-.175-.803-.526-1.103-.352-.299-1.021-.646-2.003-1.037-1.166-.487-1.994-1.037-2.479-1.643-.488-.61-.73-1.385-.73-2.323 0-1.208.481-2.203 1.443-2.982.96-.778 2.206-1.168 3.737-1.168.47 0 .996.052 1.58.157.582.104 1.069.24 1.46.404v3.001a6.827 6.827 0 0 0-1.46-.717c-.56-.2-1.11-.3-1.659-.3-.6 0-1.067.117-1.403.352-.333.235-.5.556-.5.965m10.425 3.275c0 1.4.316 2.472.952 3.21.635.74 1.544 1.108 2.726 1.108 1.15 0 2.023-.369 2.624-1.108.6-.738.9-1.836.9-3.287 0-1.444-.31-2.534-.931-3.27-.622-.737-1.495-1.101-2.617-1.101-1.157 0-2.055.384-2.694 1.153-.641.771-.96 1.868-.96 3.295m-3.289.104c0-2.218.626-3.975 1.88-5.271 1.251-1.296 2.993-1.944 5.22-1.944 2.096 0 3.734.624 4.913 1.872 1.178 1.25 1.767 2.935 1.767 5.057 0 2.175-.625 3.906-1.879 5.192-1.252 1.289-2.957 1.932-5.115 1.932-2.079 0-3.729-.611-4.95-1.835-1.223-1.22-1.836-2.888-1.836-5.003m24.229-4.32v6.89c0 1.427.334 2.496.998 3.205.665.708 1.663 1.062 2.995 1.062.452 0 .91-.047 1.377-.143.463-.094.798-.2.997-.311V44.85c-.19.124-.416.227-.671.313a2.092 2.092 0 0 1-.66.133c-.644 0-1.115-.17-1.414-.51-.3-.338-.452-.922-.452-1.748v-6.276h3.197V34.18h-3.197V30.2l-3.17.965v3.015h-4.704v-1.62c0-.81.18-1.418.535-1.833.358-.413.867-.62 1.527-.62.339 0 .639.044.9.13.261.086.444.161.548.223v-2.728a4.084 4.084 0 0 0-.782-.176 7.745 7.745 0 0 0-1.018-.059c-1.436 0-2.613.451-3.53 1.351-.918.9-1.376 2.055-1.376 3.465v1.865h-2.245v2.582h2.245v10.83h3.196V36.76h4.704zm-79.082-7.884v18.72h-3.251V32.922h-.051l-5.81 14.672h-2.153l-5.954-14.672h-.038v14.672h-3.003V28.876h4.66l5.38 13.877h.077l5.679-13.877z" fill="#FFF"/><path fill="#F25022" d="M11.8 28.052h17.698V10.355H11.8z"/><path fill="#7FBA00" d="M31.34 28.052h17.697V10.355H31.339z"/><path fill="#00A4EF" d="M11.8 47.591h17.698V29.894H11.8z"/><path fill="#FFB900" d="M31.34 47.591h17.697V29.894H31.339z"/><path d="M67.125 21.111c-.354.194-.795.349-1.324.464a7.877 7.877 0 0 1-1.675.172c-1.013 0-1.907-.222-2.683-.665a4.463 4.463 0 0 1-1.788-1.882c-.416-.811-.624-1.742-.624-2.794 0-1.108.236-2.102.707-2.982a5.06 5.06 0 0 1 1.975-2.047c.846-.484 1.795-.725 2.847-.725 1.018 0 1.873.146 2.566.441v1.571a5.072 5.072 0 0 0-2.55-.659c-.77 0-1.454.179-2.054.535-.6.356-1.068.86-1.4 1.512-.332.651-.498 1.388-.498 2.21 0 1.257.337 2.26 1.01 3.008.673.747 1.57 1.122 2.693 1.122 1.083 0 2.015-.246 2.798-.74v1.46zm8.705.449h-1.998l-3.187-3.667h-.03v3.666h-1.473v-7.661h1.473v3.493h.03l3.038-3.493h1.907l-3.427 3.689zm5.38-3.8l-1.75.24c-.534.07-.928.207-1.18.414-.25.207-.377.522-.377.946 0 .38.124.67.37.876.247.206.58.307.999.307.554 0 1.015-.194 1.384-.584.369-.39.554-.88.554-1.473v-.727zm1.46 3.8h-1.468v-1.123h-.029c-.529.873-1.3 1.309-2.313 1.309-.732 0-1.321-.2-1.766-.603-.444-.402-.665-.949-.665-1.642 0-1.452.866-2.295 2.596-2.529l2.185-.306c0-1.167-.504-1.75-1.512-1.75-.898 0-1.738.296-2.522.89v-1.393a5.297 5.297 0 0 1 2.664-.703c1.886 0 2.828.978 2.828 2.933v4.916h.002zm8.343 0H89.54v-3.225c-.893.49-1.73.733-2.515.733-.818 0-1.437-.225-1.859-.673-.421-.448-.632-1.107-.632-1.975v-2.522h1.474v2.334c0 .549.11.949.33 1.2.219.252.56.378 1.025.378.683 0 1.41-.204 2.177-.613v-3.3h1.473v7.662zm6.615-3.8l-1.75.24c-.534.07-.928.207-1.18.414-.25.207-.377.522-.377.946 0 .38.124.67.37.876.247.206.58.307.999.307.554 0 1.015-.194 1.384-.584.369-.39.554-.88.554-1.473v-.727zm1.46 3.8h-1.466v-1.123h-.03c-.528.873-1.3 1.309-2.312 1.309-.733 0-1.322-.2-1.766-.603-.445-.402-.666-.949-.666-1.642 0-1.452.866-2.295 2.597-2.529l2.184-.306c0-1.167-.504-1.75-1.512-1.75-.897 0-1.737.296-2.522.89v-1.393a5.297 5.297 0 0 1 2.664-.703c1.886 0 2.829.978 2.829 2.933v4.916zm7.094-6.443h-2.2v6.442h-1.481v-6.442h-2.2v-1.22h5.88v1.22zm6.108 4.033c0-.798-.497-1.198-1.489-1.198h-1.654v2.462h1.654c.508 0 .883-.104 1.125-.31.243-.207.364-.525.364-.954m1.534-.014c0 .717-.233 1.302-.694 1.75-.46.449-1.067.673-1.82.673h-3.636v-7.661h1.473V16.8h2.102c.804 0 1.432.208 1.889.625.457.416.686.987.686 1.71m5.524 6.025c-.399 0-.709-.035-.928-.106v-1.287c.264.11.523.165.777.165.623 0 1.083-.346 1.377-1.04l.568-1.339-3.03-7.654h1.655l1.93 5.65c.08.219.135.438.165.658h.037c.026-.2.08-.416.165-.651l2.02-5.657h1.512l-3.42 8.74c-.364.923-.766 1.573-1.201 1.952-.436.38-.978.568-1.627.568" fill="#FFF"/></g></svg>