<svg width="206" height="59" xmlns="http://www.w3.org/2000/svg" xmlns:xlink="http://www.w3.org/1999/xlink"><defs><path d="M6.634 0A6.63 6.63 0 0 0 0 6.629V52.37C0 56.031 2.97 59 6.634 59h191.859a6.633 6.633 0 0 0 6.636-6.629V6.63A6.631 6.631 0 0 0 198.493 0H6.633z" id="a"/><mask id="b" x="0" y="0" width="205.129" height="59" fill="#fff"><use xlink:href="#a"/></mask><path id="c" d="M0 15.391h107.082V.511H0z"/></defs><g fill="none" fill-rule="evenodd"><use stroke="#3F3F3F" mask="url(#b)" stroke-width="2" fill="#000" xlink:href="#a"/><path fill="#FFF" d="M59 10.825v10.777h1.533V12.17h5.358v9.432h1.52V10.825z"/><g transform="translate(59 9.75)"><path d="M16.63 7.765c0-.772-.182-1.39-.545-1.856-.363-.466-.868-.699-1.515-.699-.651 0-1.182.227-1.593.68-.41.453-.615 1.043-.615 1.77v1.03c0 .606.195 1.11.586 1.514.391.404.875.606 1.45.606.702 0 1.25-.268 1.642-.804.393-.537.59-1.284.59-2.241zm1.533.022c0 1.282-.317 2.312-.95 3.088-.634.776-1.492 1.165-2.575 1.165-.967 0-1.713-.408-2.239-1.225h-.03v4.576h-1.48V4.156h1.48v1.293h.03c.612-.988 1.48-1.48 2.608-1.48.961 0 1.728.34 2.3 1.022.57.68.856 1.613.856 2.796zm7.424.218c0-.917-.2-1.612-.602-2.086-.401-.473-.967-.71-1.698-.71-.741 0-1.322.247-1.743.744-.42.496-.631 1.192-.631 2.089 0 .867.212 1.544.635 2.033.423.489 1.005.732 1.747.732.751 0 1.32-.238 1.71-.714.388-.476.582-1.171.582-2.088m1.532-.053c0 1.248-.356 2.24-1.07 2.98-.715.738-1.665 1.108-2.853 1.108-1.167 0-2.096-.358-2.785-1.075-.688-.717-1.033-1.674-1.033-2.87 0-1.278.356-2.285 1.07-3.021.715-.736 1.69-1.104 2.928-1.104 1.156 0 2.07.352 2.74 1.06.669.706 1.003 1.68 1.003 2.922m8.431 3.901h-1.488V5.382h-3.667v6.47h-1.48V4.158h6.636v7.696zm8.004-3.848c0-.917-.2-1.612-.602-2.086-.401-.473-.967-.71-1.698-.71-.742 0-1.323.247-1.743.744-.42.496-.631 1.192-.631 2.089 0 .867.211 1.544.635 2.033.423.489 1.005.732 1.747.732.751 0 1.32-.238 1.71-.714.388-.476.582-1.171.582-2.088m1.532-.053c0 1.248-.356 2.24-1.07 2.98-.715.738-1.666 1.108-2.853 1.108-1.167 0-2.096-.358-2.785-1.075-.689-.717-1.034-1.674-1.034-2.87 0-1.278.357-2.285 1.071-3.021.715-.736 1.69-1.104 2.927-1.104 1.157 0 2.07.352 2.74 1.06.67.706 1.004 1.68 1.004 2.922m7.084 1.789c0 .702-.297 1.26-.894 1.677-.596.417-1.393.623-2.39.623-1.051 0-1.92-.133-2.607-.399v-1.338a5.302 5.302 0 0 0 2.405.55c.657 0 1.15-.104 1.48-.312a1 1 0 0 0 .496-.898c0-.786-.743-1.18-2.231-1.18l-.955.023V7.315l.933.023c.631 0 1.115-.098 1.448-.294.333-.196.499-.478.499-.849 0-.316-.142-.567-.428-.755-.286-.189-.687-.283-1.204-.283-.701 0-1.417.176-2.15.526V4.37a6.665 6.665 0 0 1 2.293-.4c.957 0 1.698.187 2.224.557.526.371.789.883.789 1.533 0 .455-.143.838-.431 1.147-.289.309-.679.511-1.17.613v.037c.607.09 1.075.3 1.403.631.328.33.49.748.49 1.254m8.553 2.111h-1.368v-5.81a5.284 5.284 0 0 1-.352.61l-3.675 5.2h-1.375V4.159h1.383V9.87a8.58 8.58 0 0 1 .368-.654l3.585-5.058h1.435v7.695h-.001zm10.189 2.803h-1.248v-2.803h-6.569V4.157h1.48v6.478h3.667V4.157h1.488v6.478h1.18v4.021z" fill="#FFF"/><mask id="d" fill="#fff"><use xlink:href="#c"/></mask><path d="M72.452 11.853h1.48V4.157h-1.48v7.696zM74.15 1.42a.86.86 0 0 1-.27.635.913.913 0 0 1-.669.267.909.909 0 0 1-.668-.26.87.87 0 0 1-.263-.642c0-.265.092-.483.278-.654a.934.934 0 0 1 .655-.255.93.93 0 0 1 .656.263c.189.175.281.39.281.646zm6.288 6.277V5.3h-1.315c-.531 0-.92.095-1.167.286-.248.19-.374.482-.374.878 0 .426.126.738.376.935.25.198.629.297 1.135.297h1.345zm1.48 4.156h-1.48V8.809H79.5c-.316 0-.584.092-.807.278-.223.186-.423.474-.599.865l-.872 1.9h-1.698l1.112-2.202c.165-.336.346-.597.541-.785.195-.187.449-.34.76-.454-.592-.105-1.052-.328-1.383-.668-.331-.34-.497-.794-.497-1.36 0-.702.26-1.249.779-1.639.518-.39 1.227-.586 2.13-.586h2.953v7.695zm10.715-2.269c0-.747-.526-1.12-1.578-1.12h-1.759v2.24h1.901c.481 0 .84-.09 1.078-.271.238-.181.358-.465.358-.85m-.279-3.337c0-.32-.102-.56-.308-.718-.205-.158-.538-.237-.999-.237h-1.75v2.052h1.623c.956.001 1.434-.366 1.434-1.097m1.805 3.36c0 .666-.239 1.206-.712 1.623-.473.417-1.085.624-1.837.624h-3.795V4.157h3.57c.746 0 1.325.167 1.736.5.412.334.616.81.616 1.432 0 .436-.116.805-.344 1.108-.228.302-.565.511-1.017.627.576.07 1.017.259 1.322.567.306.308.46.714.46 1.214m1.945 2.248h1.48V4.157h-1.48v7.696zM97.801 1.42a.86.86 0 0 1-.27.635.913.913 0 0 1-.668.267.909.909 0 0 1-.669-.26.87.87 0 0 1-.263-.642.85.85 0 0 1 .279-.654.934.934 0 0 1 .654-.255c.251 0 .47.087.66.263a.845.845 0 0 1 .277.646zm6.614 9.215V5.382h-1.646c-.13 1.958-.667 3.71-1.608 5.253h3.254zm2.667 4.021h-1.248v-2.803h-5.65v2.803h-1.241v-4.02h.684c1.227-1.814 1.871-3.974 1.931-6.48h4.344v6.48h1.18v4.02z" fill="#FFF" mask="url(#d)"/></g><path d="M83.865 47.802h3.172V34.329h-3.172v13.473zm-.327-17.366c0-.524.19-.963.57-1.317.38-.354.831-.53 1.356-.53.56 0 1.022.181 1.39.543.366.363.55.798.55 1.304 0 .516-.188.948-.564 1.297-.375.35-.835.525-1.376.525-.541 0-.998-.177-1.37-.53a1.722 1.722 0 0 1-.556-1.292zm13.12 15.059c.47 0 .99-.11 1.56-.328a6.608 6.608 0 0 0 1.572-.865v2.948a6.32 6.32 0 0 1-1.724.657 9.45 9.45 0 0 1-2.116.223c-1.983 0-3.595-.627-4.836-1.88-1.241-1.256-1.86-2.856-1.86-4.803 0-2.168.633-3.952 1.899-5.357 1.266-1.401 3.063-2.102 5.386-2.102.595 0 1.195.077 1.802.229.608.153 1.091.33 1.448.53v3.042a6.433 6.433 0 0 0-1.5-.832 4.331 4.331 0 0 0-1.567-.295c-1.25 0-2.259.407-3.027 1.219-.77.813-1.153 1.91-1.153 3.289 0 1.363.37 2.425 1.107 3.184.737.76 1.74 1.14 3.009 1.14m12.16-11.388c.254 0 .481.018.681.053.202.034.372.078.512.13V37.5c-.167-.122-.41-.237-.727-.346-.32-.11-.706-.164-1.16-.164-.777 0-1.435.327-1.972.982-.538.657-.807 1.665-.807 3.028v6.802h-3.172V34.329h3.172v2.123h.052c.29-.734.726-1.31 1.311-1.724.585-.414 1.29-.622 2.11-.622m4.669 7.051c0 1.407.318 2.483.956 3.224.637.743 1.55 1.114 2.74 1.114 1.152 0 2.03-.371 2.634-1.114.603-.741.904-1.844.904-3.301 0-1.45-.312-2.545-.936-3.285-.624-.739-1.501-1.106-2.628-1.106-1.162 0-2.063.386-2.705 1.159-.644.774-.965 1.876-.965 3.309m-3.303.105c0-2.228.629-3.993 1.887-5.295s3.006-1.952 5.243-1.952c2.106 0 3.75.626 4.936 1.88 1.184 1.255 1.775 2.948 1.775 5.08 0 2.184-.629 3.923-1.888 5.215-1.257 1.294-2.97 1.94-5.138 1.94-2.088 0-3.745-.614-4.973-1.843-1.229-1.226-1.842-2.901-1.842-5.025m18.557-3.394c0 .454.142.81.432 1.069.289.257.926.582 1.914.976 1.266.508 2.156 1.076 2.665 1.71.512.633.768 1.4.768 2.3 0 1.266-.487 2.285-1.462 3.054-.975.77-2.29 1.153-3.952 1.153a9.462 9.462 0 0 1-1.853-.204c-.677-.133-1.253-.307-1.724-.517V44.29a7.84 7.84 0 0 0 1.861.957c.663.236 1.266.354 1.809.354.717 0 1.244-.101 1.585-.301.341-.202.51-.538.51-1.01 0-.437-.176-.807-.53-1.108-.353-.3-1.025-.649-2.012-1.042-1.17-.488-2.002-1.041-2.489-1.65-.49-.612-.734-1.39-.734-2.333 0-1.214.484-2.213 1.45-2.995.964-.781 2.216-1.174 3.754-1.174.472 0 1 .053 1.586.158.585.105 1.074.241 1.468.407v3.014c-.42-.28-.91-.518-1.468-.721a4.902 4.902 0 0 0-1.666-.302c-.603 0-1.072.118-1.41.354a1.123 1.123 0 0 0-.502.97m10.471 3.289c0 1.407.318 2.483.957 3.224.637.743 1.55 1.114 2.738 1.114 1.155 0 2.032-.371 2.636-1.114.603-.741.904-1.844.904-3.301 0-1.45-.311-2.545-.936-3.285-.625-.74-1.5-1.106-2.628-1.106-1.162 0-2.064.386-2.706 1.159-.644.774-.965 1.876-.965 3.309m-3.303.105c0-2.228.629-3.993 1.888-5.295 1.257-1.302 3.007-1.952 5.244-1.952 2.105 0 3.75.626 4.934 1.88 1.184 1.255 1.775 2.948 1.775 5.08 0 2.184-.627 3.923-1.887 5.215-1.258 1.294-2.97 1.94-5.138 1.94-2.088 0-3.745-.614-4.972-1.843-1.228-1.226-1.844-2.901-1.844-5.025m24.337-4.339v6.92c0 1.433.334 2.507 1.001 3.219.669.712 1.672 1.067 3.01 1.067.453 0 .914-.047 1.382-.144.466-.095.802-.2 1.002-.313v-2.624a2.96 2.96 0 0 1-.675.314 2.101 2.101 0 0 1-.663.134c-.646 0-1.12-.17-1.42-.512-.301-.34-.454-.926-.454-1.756v-6.304h3.212v-2.593h-3.212v-3.998l-3.183.97v3.028h-4.725v-1.627c0-.813.18-1.425.537-1.841.36-.415.87-.623 1.534-.623.34 0 .641.044.904.131.262.086.445.162.55.223v-2.74a4.102 4.102 0 0 0-.786-.176 7.78 7.78 0 0 0-1.022-.06c-1.442 0-2.624.454-3.545 1.358-.922.904-1.383 2.064-1.383 3.48v1.873h-2.255v2.594h2.255V47.8h3.21V36.923h4.726zm-79.432-7.919v18.802h-3.266V33.069h-.051L71.66 47.806h-2.162l-5.98-14.737h-.038v14.737h-3.017V29.004h4.681l5.403 13.938h.078l5.704-13.938z" fill="#FFF"/><path fill="#F25022" d="M11.853 28.176h17.775V10.401H11.853z"/><path fill="#7FBA00" d="M31.478 28.176h17.775V10.401H31.478z"/><path fill="#00A4EF" d="M11.853 47.802h17.775V30.026H11.853z"/><path fill="#FFB900" d="M31.478 47.802h17.775V30.026H31.478z"/></g></svg>